<svg xmlns="http://www.w3.org/2000/svg" width="200" height="200" viewBox="0 0 200 200">
  <g id="Grupo_569" data-name="Grupo 569" transform="translate(20 -3167)">
    <g id="Grupo_568" data-name="Grupo 568" transform="translate(560 -258)">
      <rect id="Retângulo_390" data-name="Retângulo 390" width="200" height="200" rx="100" transform="translate(-580 3425)" fill="#457765"/>
      <path id="Subtração_1" data-name="Subtração 1" d="M100,225a100.739,100.739,0,0,1-20.154-2.032,99.451,99.451,0,0,1-35.757-15.047,100.292,100.292,0,0,1-36.231-44,99.5,99.5,0,0,1-5.827-18.771A100.738,100.738,0,0,1,0,125,99.617,99.617,0,0,1,24.606,59.3a100.429,100.429,0,0,1,27.114-21.9A99.08,99.08,0,0,1,85.468,26.048a106.661,106.661,0,0,0-14.5,14.67A84.339,84.339,0,0,0,60.422,57.191,59.733,59.733,0,0,0,55,74.546a44.191,44.191,0,0,0,.855,17.315,51.451,51.451,0,0,0,6.1,13.994A96.867,96.867,0,0,0,72.1,119.387c7.828,8.918,17.3,17.494,27.331,26.575,11.673,10.568,23.744,21.5,33.044,33.054,8.917,11.11,15.137,22.615,19.561,31.4A99.549,99.549,0,0,1,100,225Z" transform="translate(-580 3400)" fill="#487d6a"/>
    </g>
    <g id="Outline" transform="translate(16 3204)">
      <path id="Caminho_955" data-name="Caminho 955" d="M111.02,20.832h-6.442a1.611,1.611,0,0,0-1.611,1.611v8.325a32.287,32.287,0,0,1-1.609,10.06l0-2.28a6.442,6.442,0,0,0-12.884,0v4.832a6.4,6.4,0,0,0,.951,3.365,1.607,1.607,0,0,0-.722,2.295l3.768,6.28a4.832,4.832,0,1,0,4.889,0l3.768-6.28a35.521,35.521,0,0,0,5.061-18.271v-.272h3.221V32a47.36,47.36,0,0,1-6.23,23.459,1.611,1.611,0,0,0-.2.6l-1.434,11.474H88.3L86.852,54.474a1.611,1.611,0,0,0-3.211.178V67.536H80.42V54.652a4.837,4.837,0,0,1,4.832-4.832V46.6A8.062,8.062,0,0,0,77.2,54.652V75.589A1.611,1.611,0,0,0,78.81,77.2h5.966l-1.1,18.62-2.316,2.316H80.42V90.083a1.611,1.611,0,0,0-1.611-1.611h-.943L75.55,86.156,73.986,59.57l1.53-9.183L80.05,42.83a36.5,36.5,0,0,0,5.2-18.777V17.611A1.611,1.611,0,0,0,83.641,16H77.2a1.611,1.611,0,0,0-1.611,1.611v6.442A21.65,21.65,0,0,1,72.5,35.189l-1.049,1.748H69.891a6.4,6.4,0,0,0,.866-3.221V28.884a6.442,6.442,0,1,0-12.884,0v4.832a6.4,6.4,0,0,0,.867,3.221H57.175L56.127,35.19a21.651,21.651,0,0,1-3.085-11.137V17.611A1.611,1.611,0,0,0,51.431,16H44.989a1.611,1.611,0,0,0-1.611,1.611v6.442a36.5,36.5,0,0,0,5.2,18.776l4.535,7.559.875,5.248,3.177-.53-.925-5.55a1.611,1.611,0,0,0-.208-.564l-4.691-7.819a33.282,33.282,0,0,1-4.7-15.51h3.234a24.877,24.877,0,0,0,3.491,11.184l1.517,2.528a1.611,1.611,0,0,0,1.382.782h2.309l3.3,5.5a4.832,4.832,0,1,0,4.889,0l3.3-5.5h2.309a1.611,1.611,0,0,0,1.381-.782l1.517-2.528a24.877,24.877,0,0,0,3.492-11.184h3.234a33.282,33.282,0,0,1-4.7,15.51L72.6,48.992a1.611,1.611,0,0,0-.208.564L71,57.873H56.263a1.61,1.61,0,0,0-1.608,1.516L53.08,86.156l-2.316,2.316h-.943a1.611,1.611,0,0,0-1.611,1.611v8.053h-.943L44.95,95.819l-1.1-18.62h5.966a1.611,1.611,0,0,0,1.611-1.611V54.652A8.062,8.062,0,0,0,43.379,46.6H39.292a6.4,6.4,0,0,0,.866-3.221V38.547a6.442,6.442,0,0,0-12.884,0v2.285a32.3,32.3,0,0,1-1.611-10.066V22.442a1.611,1.611,0,0,0-1.611-1.611H17.611A1.611,1.611,0,0,0,16,22.442V32a50.588,50.588,0,0,0,6.494,24.775l1.087,8.7,3.2-.4L25.65,56.063a1.611,1.611,0,0,0-.2-.6A47.36,47.36,0,0,1,19.221,32v-1.51h3.221v.272a35.519,35.519,0,0,0,5.06,18.27l3.769,6.282a4.832,4.832,0,1,0,4.889,0l3.3-5.5h3.92a4.837,4.837,0,0,1,4.832,4.832V67.536H44.989V54.652a1.611,1.611,0,0,0-3.211-.178L40.327,67.536H25.663a1.61,1.61,0,0,0-1.608,1.516L22.481,95.819l-2.788,2.788a1.611,1.611,0,0,0,1.139,2.749H49.821a1.611,1.611,0,0,0,1.611-1.611V91.694H77.2v8.053a1.611,1.611,0,0,0,1.61,1.611h30.6v8.053H19.221v-6.442H16v8.053a1.611,1.611,0,0,0,1.611,1.61H111.02a1.611,1.611,0,0,0,1.61-1.61V99.746a1.611,1.611,0,0,0-1.61-1.611h-2.554l-2.316-2.316L104.584,69.2l1.553-12.421A50.588,50.588,0,0,0,112.63,32V22.442A1.611,1.611,0,0,0,111.02,20.832ZM96.9,49.821l-1.987,3.312-1.987-3.312ZM91.694,38.547a3.221,3.221,0,0,1,6.442,0v4.832a3.221,3.221,0,0,1-6.442,0Zm3.221,22.547a1.611,1.611,0,1,1,1.611-1.611A1.611,1.611,0,0,1,94.915,61.094ZM46.6,22.442V19.221h3.221v3.221ZM61.094,33.716V28.884a3.221,3.221,0,0,1,6.442,0v4.832a3.221,3.221,0,0,1-6.442,0Zm3.221,17.716a1.611,1.611,0,1,1,1.611-1.611,1.611,1.611,0,0,1-1.611,1.611Zm0-7.962-1.987-3.312H66.3ZM78.81,22.442V19.221h3.221v3.221ZM19.221,27.274V24.053h3.221v3.221ZM30.495,38.547a3.221,3.221,0,1,1,6.442,0v4.832a3.221,3.221,0,0,1-6.442,0Zm3.221,22.547a1.611,1.611,0,1,1,1.611-1.611A1.611,1.611,0,0,1,33.716,61.094Zm0-7.962-1.987-3.312H35.7ZM48.21,70.757v3.221H44.989V70.757ZM32.351,98.136l1.364-9.549,1.364,9.549Zm5.982,0L35.31,76.971a1.611,1.611,0,0,0-3.188,0L29.1,98.136H24.719l.472-.472a1.611,1.611,0,0,0,.469-1.044l1.521-25.863H40.25L41.771,96.62a1.61,1.61,0,0,0,.469,1.044l.472.472Zm24.618-9.663,1.364-9.549,1.364,9.549Zm5.982,0L65.909,67.308a1.61,1.61,0,0,0-3.188,0L59.7,88.473H55.319L55.791,88a1.611,1.611,0,0,0,.469-1.044l1.521-25.863H70.849L72.37,86.957A1.611,1.611,0,0,0,72.839,88l.472.472ZM83.641,73.978H80.42V70.757h3.221Zm9.909,24.158,1.364-9.549,1.364,9.549Zm5.982,0L96.509,76.971a1.611,1.611,0,0,0-3.188,0L90.3,98.136H85.919l.472-.472a1.611,1.611,0,0,0,.469-1.044l1.521-25.863h13.068L102.97,96.62a1.611,1.611,0,0,0,.469,1.044l.472.472Zm6.656-70.862V24.053h3.221v3.221Z" fill="#fec335"/>
    </g>
  </g>
</svg>
