<svg xmlns="http://www.w3.org/2000/svg" width="200" height="200" viewBox="0 0 200 200">
  <g id="Grupo_659" data-name="Grupo 659" transform="translate(-210 -3956)">
    <g id="Grupo_657" data-name="Grupo 657">
      <g id="Grupo_572" data-name="Grupo 572" transform="translate(230 789)">
        <g id="Grupo_568" data-name="Grupo 568" transform="translate(560 -258)">
          <rect id="Retângulo_390" data-name="Retângulo 390" width="200" height="200" rx="100" transform="translate(-580 3425)" fill="#457765"/>
          <path id="Subtração_1" data-name="Subtração 1" d="M100,225a100.739,100.739,0,0,1-20.154-2.032,99.451,99.451,0,0,1-35.757-15.047,100.292,100.292,0,0,1-36.231-44,99.5,99.5,0,0,1-5.827-18.771A100.738,100.738,0,0,1,0,125,99.617,99.617,0,0,1,24.606,59.3a100.429,100.429,0,0,1,27.114-21.9A99.08,99.08,0,0,1,85.468,26.048a106.661,106.661,0,0,0-14.5,14.67A84.339,84.339,0,0,0,60.422,57.191,59.733,59.733,0,0,0,55,74.546a44.191,44.191,0,0,0,.855,17.315,51.451,51.451,0,0,0,6.1,13.994A96.867,96.867,0,0,0,72.1,119.387c7.828,8.918,17.3,17.494,27.331,26.575,11.673,10.568,23.744,21.5,33.044,33.054,8.917,11.11,15.137,22.615,19.561,31.4A99.549,99.549,0,0,1,100,225Z" transform="translate(-580 3400)" fill="#487d6a"/>
        </g>
      </g>
    </g>
    <g id="Outline" transform="translate(246 3993)">
      <path id="Caminho_976" data-name="Caminho 976" d="M98.442,55.217a12.857,12.857,0,0,0,12.222,8.917,1.6,1.6,0,0,0,1.6-1.6V36.858A12.83,12.83,0,0,0,101.5,24.191,17.711,17.711,0,0,0,86.6,16H83.387A17.669,17.669,0,0,0,65.738,33.649v4.072a6.416,6.416,0,0,0,3.209,11.972h.323a16.09,16.09,0,0,0,7.7,10.677v6.972H73.761V64.134a6.425,6.425,0,0,0-6.418-6.418H22.418A6.425,6.425,0,0,0,16,64.134v28.88a6.425,6.425,0,0,0,6.418,6.418H33.2l-2.407,9.627H16v3.209h96.268v-3.209h-3.213a7.98,7.98,0,0,0,1.609-4.813V76.969a9.638,9.638,0,0,0-9.627-9.627H93.014V60.371A16.163,16.163,0,0,0,98.442,55.217Zm5.8-11.941a3.213,3.213,0,0,1-3.209,3.209V40.067a3.213,3.213,0,0,1,3.209,3.209Zm4.813-6.418V60.791a9.642,9.642,0,0,1-8.022-9.493v-1.6a6.416,6.416,0,0,0,3.209-11.972V33.649a17.687,17.687,0,0,0-.905-5.584,9.612,9.612,0,0,1,5.719,8.793ZM68.947,33.649a14.456,14.456,0,0,1,14.44-14.44H86.6a14.494,14.494,0,0,1,12.511,7.223l.026.047a14.441,14.441,0,0,1,1.9,7.17v3.209h-.7l-4.346-7.243a1.6,1.6,0,0,0-2.04-.635c-.14.063-14.04,6.344-23.56,7.645l-.059.007c-.481.065-.946.117-1.388.154Zm-3.209,9.627a3.213,3.213,0,0,1,3.209-3.209v6.418a3.213,3.213,0,0,1-3.209-3.209Zm6.418,3.209V39.6c8.139-1.4,18.239-5.569,21.815-7.117l3.856,6.427v7.578a12.836,12.836,0,0,1-25.671,0ZM22.418,96.223a3.213,3.213,0,0,1-3.209-3.209V64.134a3.213,3.213,0,0,1,3.209-3.209H67.343a3.213,3.213,0,0,1,3.209,3.209v28.88a3.212,3.212,0,0,1-3.209,3.209H51.511L52.89,85.191a1.6,1.6,0,0,0-1.592-1.8H38.462A1.6,1.6,0,0,0,36.906,84.6L34,96.223Zm45.088,3.205a6.431,6.431,0,0,0,.921-.089c.167.232.34.461.521.683v9.037H64.673Zm-16.8,3.213.4-3.209h1.225l-.767,3.209ZM34.1,109.059,39.715,86.6h9.766l-2.808,22.462Zm15.807,0,.4-3.209h5.8v3.209Zm9.414,0v-4.813a1.6,1.6,0,0,0-1.6-1.6H54.868l.767-3.209H64.16l-2.831,9.627ZM87.787,96.274l-4.642.928,5.049-7.778a1.8,1.8,0,0,1,2.425-.52,1.6,1.6,0,0,1,.752,1.011,1.5,1.5,0,0,1-.21,1.16Zm-9.213,12.268-.955.212-.533-2.218,1.488-2.291Zm3.209.517v-8.311l6.193-1.239,5.925,2.963a1.6,1.6,0,0,0,.895.16l12.659-1.407v3.021a4.819,4.819,0,0,1-4.813,4.813ZM104.175,91.41h3.279V98l-5.4.6A13.728,13.728,0,0,0,104.175,91.41Zm-3.139-20.858a6.425,6.425,0,0,1,6.418,6.418V88.2h-3.642a13.79,13.79,0,0,0-5-7.683l-1.973,2.53a10.384,10.384,0,0,1,1.392,15.318,1.6,1.6,0,0,0-.361.695l-2.961.329L90.894,97.38l2.957-4.557a4.677,4.677,0,0,0,.646-3.63,4.781,4.781,0,0,0-2.226-3.041A5.039,5.039,0,0,0,85.5,87.676L74.019,105.366a1.6,1.6,0,0,0-.214,1.249l.588,2.443H72.156V99.432a1.6,1.6,0,0,0-.406-1.066q-.174-.2-.338-.4c.069-.057.14-.111.209-.171a6.426,6.426,0,0,0,2.139-4.782V71.938a12.919,12.919,0,0,0,7.6,6.114,12.589,12.589,0,0,0,1.376.324,12.84,12.84,0,0,0,14.146-7.825Zm-8.022,0h.306a9.693,9.693,0,0,1-8.328,4.813,9.581,9.581,0,0,1-1.688-.148,9.4,9.4,0,0,1-1.03-.242,9.689,9.689,0,0,1-5.609-4.423h.306a3.213,3.213,0,0,0,3.209-3.209V61.791a16.052,16.052,0,0,0,9.627,0v5.552a3.213,3.213,0,0,0,3.209,3.209Z" fill="#fec335"/>
      <path id="Caminho_977" data-name="Caminho 977" d="M314.407,128a2.407,2.407,0,1,0,2.407,2.407A2.407,2.407,0,0,0,314.407,128Z" transform="translate(-236.635 -89.538)" fill="#fec335"/>
      <path id="Caminho_978" data-name="Caminho 978" d="M386.407,132.813A2.407,2.407,0,1,0,384,130.407,2.407,2.407,0,0,0,386.407,132.813Z" transform="translate(-294.195 -89.538)" fill="#fec335"/>
      <path id="Caminho_979" data-name="Caminho 979" d="M345.627,176h-3.209a1.6,1.6,0,1,1-3.209,0H336a4.813,4.813,0,1,0,9.627,0Z" transform="translate(-255.822 -127.911)" fill="#fec335"/>
      <rect id="Retângulo_391" data-name="Retângulo 391" width="6" height="3" transform="translate(23 64)" fill="#fec335"/>
      <rect id="Retângulo_392" data-name="Retângulo 392" width="6" height="3" transform="translate(32 64)" fill="#fec335"/>
      <rect id="Retângulo_393" data-name="Retângulo 393" width="7" height="3" transform="translate(41 64)" fill="#fec335"/>
      <rect id="Retângulo_394" data-name="Retângulo 394" width="6" height="3" transform="translate(51 64)" fill="#fec335"/>
      <rect id="Retângulo_395" data-name="Retângulo 395" width="6" height="3" transform="translate(61 64)" fill="#fec335"/>
    </g>
  </g>
</svg>
