<svg xmlns="http://www.w3.org/2000/svg" width="50" height="39" viewBox="0 0 50 39">
  <g id="Grupo_684" data-name="Grupo 684" transform="translate(-691 -386)">
    <rect id="Retângulo_423" data-name="Retângulo 423" width="50" height="39" transform="translate(691 386)" fill="#fff"/>
    <g id="Grupo_681" data-name="Grupo 681">
      <circle id="Elipse_24" data-name="Elipse 24" cx="18.5" cy="18.5" r="18.5" transform="translate(691 387)" fill="#1b8f76"/>
      <path id="Subtração_9" data-name="Subtração 9" d="M-1418.5,37a18.386,18.386,0,0,1-7.2-1.454,18.439,18.439,0,0,1-5.881-3.965,18.44,18.44,0,0,1-3.965-5.88A18.385,18.385,0,0,1-1437,18.5a18.387,18.387,0,0,1,1.454-7.2,18.441,18.441,0,0,1,3.965-5.881,18.439,18.439,0,0,1,5.881-3.965A18.386,18.386,0,0,1-1418.5,0a18.317,18.317,0,0,1,8.177,1.9,18.678,18.678,0,0,1,6.315,5.1h-18.217a3.155,3.155,0,0,0-3.216,3.083V11.3a1.52,1.52,0,0,0,.616,1.214l.439.329c1.775,1.332,2.948,2.212,11.178,7.939.2.136.436.314.669.487,1.168.865,2.933,2.173,4.217,2.173h.061c1.285,0,3.05-1.307,4.218-2.172.245-.181.476-.352.67-.487,1.293-.9,2.4-1.669,3.372-2.351V18.5a18.727,18.727,0,0,1-.182,2.608l-.253.176-1.671,1.165c-.2.143-.437.315-.683.5l-.007.005c-1.371,1.018-3.444,2.555-5.462,2.555h-.053c-2.009,0-4-1.47-5.447-2.543-.253-.187-.493-.365-.708-.515-6.921-4.821-8.843-6.194-10.324-7.3a.415.415,0,0,0-.249-.084.39.39,0,0,0-.4.385V28.585a3.155,3.155,0,0,0,3.216,3.083h16.719A18.389,18.389,0,0,1-1418.5,37Z" transform="translate(2128 387)" fill="#1fa387"/>
      <path id="envelope-solid" d="M29.14,71.356a.349.349,0,0,1,.563.273V83.493a2.785,2.785,0,0,1-2.785,2.785H2.785A2.785,2.785,0,0,1,0,83.493V71.635a.347.347,0,0,1,.563-.273c1.3,1.009,3.023,2.292,8.94,6.59,1.224.893,3.289,2.773,5.349,2.761,2.071.017,4.177-1.9,5.355-2.761C26.124,73.654,27.841,72.366,29.14,71.356Zm-14.289,7.5c1.346.023,3.284-1.694,4.258-2.4,7.7-5.587,8.284-6.074,10.06-7.466a1.388,1.388,0,0,0,.534-1.1v-1.1A2.785,2.785,0,0,0,26.918,64H2.785A2.785,2.785,0,0,0,0,66.785v1.1a1.4,1.4,0,0,0,.534,1.1c1.775,1.387,2.361,1.88,10.06,7.466C11.568,77.158,13.506,78.875,14.852,78.852Z" transform="translate(705 330)" fill="#fff"/>
    </g>
  </g>
</svg>
