<svg xmlns="http://www.w3.org/2000/svg" xmlns:xlink="http://www.w3.org/1999/xlink" width="628" height="475.241" viewBox="0 0 628 475.241">
  <defs>
    <linearGradient id="linear-gradient" x1="0.5" y1="1" x2="0.5" gradientUnits="objectBoundingBox">
      <stop offset="0" stop-color="gray" stop-opacity="0.251"/>
      <stop offset="0.54" stop-color="gray" stop-opacity="0.122"/>
      <stop offset="1" stop-color="gray" stop-opacity="0.102"/>
    </linearGradient>
  </defs>
  <g id="undraw_High_five_u364" transform="translate(18.165 -11.798)">
    <path id="Caminho_850" data-name="Caminho 850" d="M321.208,706.111c-5.424-.549-11.091-1.136-16.228.3s-9.393,5.628-7.868,9.636c3.408,8.934,23.407,2.712,32.628,8.819,3.293,2.182,4.576,5.616,7.147,8.3,4.161,4.352,11.314,6.381,18.219,7.5,41.479,6.707,88.766-10.555,125.121,6.069,11.774,5.386,21.059,13.956,33.968,17.549,17.1,4.761,35.832-.325,53.528-3.586a261.813,261.813,0,0,1,66.935-3.51c16.547,1.276,38.557,1.7,43.853-10.312,3.408-7.728-3.8-16.33-13.376-19.987s-20.778-3.542-31.467-3.191c-20.631.74-41.269,2.234-61.9,1.506-39.9-1.417-77.586-17.23-116.436-17.753C410.089,706.9,366.663,710.693,321.208,706.111Z" transform="translate(-174.937 -295.027)" fill="#fec335"/>
    <path id="Caminho_851" data-name="Caminho 851" d="M265.481,389.02c-6.382,6.452-6.771,16.343-6.771,16.343s9.885-.562,16.241-7.02S281.728,382,281.728,382,271.837,382.581,265.481,389.02Z" transform="translate(-162.154 -182.962)" fill="#fcb618" opacity="0.1"/>
    <path id="Caminho_852" data-name="Caminho 852" d="M309.213,133.3c2.253,8.774,10.517,14.231,10.517,14.231s4.614-8.762,2.361-17.536-10.517-14.224-10.517-14.224S306.935,124.532,309.213,133.3Z" transform="translate(-180.201 -86.626)" fill="#fcb618" opacity="0.1"/>
    <path id="Caminho_853" data-name="Caminho 853" d="M890.567,177.076c-6.381,6.452-6.777,16.343-6.777,16.343s9.891-.562,16.247-7.02,6.771-16.349,6.771-16.349S896.923,170.656,890.567,177.076Z" transform="translate(-388.343 -106.267)" fill="#fcb618" opacity="0.1"/>
    <path id="Caminho_854" data-name="Caminho 854" d="M589.584,313.788c-.74,9.023,5.278,16.885,5.278,16.885s7.23-6.771,7.97-15.8S597.555,298,597.555,298,590.325,304.758,589.584,313.788Z" transform="translate(-281.86 -152.566)" fill="#fcb618" opacity="0.1"/>
    <path id="Caminho_855" data-name="Caminho 855" d="M917.644,512.094c-.74,9.023,5.277,16.885,5.277,16.885s7.23-6.771,7.971-15.794-5.278-16.885-5.278-16.885S918.385,503.071,917.644,512.094Z" transform="translate(-400.57 -224.322)" fill="#fcb618" opacity="0.1"/>
    <path id="Caminho_857" data-name="Caminho 857" d="M693.075,256.249a5.743,5.743,0,0,0-3.918,3.452l-.638-.1-2.38-.383s-12.61-1.04-14.964-.881-3.829-2.163-3.829-2.163l-9.374-7.932-.727-.638c1.015-.383,1.646-.581,1.646-.581s-25.156-31.269-30.58-31.875-14.39-7.907-14.479-7.977l-.1-.5c-.2-1.053-.345-2.119-.453-3.191l1.334.817h0a10.748,10.748,0,0,1,.038-1.11h0a20.191,20.191,0,0,1,3.752-10.721c2.623-3.637,6.5-6.5,8.053-10.689a15.449,15.449,0,0,0,.823-5.609,18.7,18.7,0,0,0-2.616-9.757,12.188,12.188,0,0,0-8.232-5.679c-.893-.14-1.806-.16-2.687-.364-5.239-1.232-7.166-8.258-12.259-9.981a10.325,10.325,0,0,0-7.307.721c-2.291,1-4.365,2.425-6.6,3.529s-4.78,1.914-6.815,3.478a7.121,7.121,0,0,0-.638.549h0l-.4.389h0a14.445,14.445,0,0,0-2.176,2.84l-.1.16c-.064.108-.121.223-.179.338s-.1.179-.134.268-.1.2-.147.306l-.134.306-.115.294c-.038.109-.083.217-.115.332s-.064.185-.089.281l-.1.338-.057.274a2.259,2.259,0,0,1-.064.351,1.127,1.127,0,0,0,0,.255v1.181a3.893,3.893,0,0,0,.115.555h0a11.15,11.15,0,0,0,2.438,3.42c-.1.1-.2.185-.306.287a22.245,22.245,0,0,0-6.809,16.024,21.955,21.955,0,0,0,.364,3.963,21.256,21.256,0,0,0-3.72-2.253,32.474,32.474,0,0,0-13.841-3.191c-7.817-.089-18.8-3.025-18.8-3.025a7.464,7.464,0,0,1,.638,1.691c-.479-.274-1-.568-1.563-.874a45.831,45.831,0,0,0-14.677-4.914s-3.255.453-3.689-6.381a28.971,28.971,0,0,0-1.149-6.3,107.351,107.351,0,0,1-3.867-19.144l-1.091-10.032s4.914-26.164,1.959-37.319c.951-3.5.415-6.7-2.718-9-12.361-9.1-24.83,26.317-24.83,26.317l-4.633,4.5a9.943,9.943,0,0,0-3.931-1.5s-2.5,2.553-4.231,9.521c-.919,3.695-7.2,9.866-12.878,14.837-4.033,3.529-7.926,7.2-11.812,10.88-2.872,2.731-9.272,6.637-23.235,8.845-2.189.345-4.18.67-6,.97a18.715,18.715,0,0,0,.7-5.067,19,19,0,0,0-14.907-18.462,4.763,4.763,0,0,0,0-1.346,5.577,5.577,0,0,0-1.41-2.553c-2.942-3.637-6.133-7.377-10.51-9.1a13.688,13.688,0,0,0-5.673-.913H384.7a14.537,14.537,0,0,0-10.631,5.539c-1.57,2.1-2.514,4.588-3.867,6.828a30.373,30.373,0,0,1-10.574,9.872c-2.521,1.525-5.169,2.84-7.549,4.569-8.634,6.273-12.616,17.868-10.446,28.232.957,4.55,2.98,9.03,2.438,13.644-.427,3.58-2.355,6.8-4.32,9.834s-4.046,6.126-4.824,9.642.038,7.658,2.987,9.789a23.561,23.561,0,0,1,3.325,2.221,10.653,10.653,0,0,1,1.532,2.4,23.879,23.879,0,0,0,14.85,11.538,10.847,10.847,0,0,0,3.038.332h.306c2.342.147,4.741-.479,5.526-2.553a5.8,5.8,0,0,1,.53-1.353,1.589,1.589,0,0,1,.925-.638,8.5,8.5,0,0,1,2.163.817,27.518,27.518,0,0,0,10.517,3.006,14.809,14.809,0,0,0,1.844.032,8.155,8.155,0,0,0,3.759-.536,8.054,8.054,0,0,0,2.891-2.476c.166-.211.319-.434.479-.638a52.78,52.78,0,0,1-4.71,14.677s-3.829,6.382-3.554,12.814a12.871,12.871,0,0,0,1.436,6.764s.108-.281.332-.721c1.1,1.838,4.7,7.715,7.058,9.776.115,6.069.089,13.669-.67,15.232-1.276,2.674-5.309,21.7,12.035,34.67l4,8.762-16.47,1.168c-1.666-.23-23.2-3.127-23.311,1.091-.108,4.384,3.255,47.076,14.422,44.185,10.408-2.693,6.975-15.143,6.458-16.815l.37-.1-.408-.115,8.328-7.894a3.689,3.689,0,0,0-.638-2.738l.083-.045,20.114.9L419.2,369s8.021,12.2,1.519,22.469-13.229,26.323-14.314,36.062c-.887,7.964-6.784,15.788-8.9,18.366-3.771,1.276-18.238,6.956-12.463,15.552,6.611,9.84,28.078,28.57,36.757,27.925s5.2-6.956,5.2-6.956l-7.256-7.032s-1.276-14.984-.759-19.368a4.513,4.513,0,0,0-3.191-4.614c.683-4.882,2.412-14.135,6.126-19.247,5.2-7.173,21.9-38.735,21.9-38.735s5.309-4.71,4.116-18.723c-.479-5.654-.747-10.619-.9-14.543l18.9.849s20.274-2.036,6.5-23.758S429.4,294.231,429.4,294.231l-.262-13.446c1.327.332,2.106.5,2.106.5s-.115-.485-.306-1.353l.306.07s-4.231-18.308-5.533-32.864l1.193.549c12.578,14.556,21.059,2.253,21.059,2.253s26.566-37.344,23.962-35.634a2.259,2.259,0,0,1-1.749.109l1.914-6.1s7.843-11.984-3.542-18.723c-9.291-5.5-9.049,11.742-8.647,18.257l-.459-.389s-8.889,13.4-13.663,20.867S437,230.876,437,230.876l-6.03-6.8a23.874,23.874,0,0,0,1.436-8.5,14.441,14.441,0,0,0-4.078-11.027c-4.6-4.69-5.948-9.234-6.088-12.731a13.477,13.477,0,0,1,1.206-5.246l31.339-16.592s6.611.1,15.5-13.592a235.114,235.114,0,0,1,18.979-25.034s-.185-.268-.5-.708c.319-.376.5-.581.5-.581s-.364-.53-.983-1.346l4.831-5.571a71.493,71.493,0,0,0-.057,7.562l2.5,8.455,1.4,47.076s-1.519,4.467,8.245,8.991c8.258,3.829,21.34,10.21,25.156,12.093-.141.345-.223.53-.223.53l1.136-.077.166.077h0c19.074-1.71,18.423,17.332,18.423,17.332s1.276,38.735-4.55,52.219-4.99,30.172-4.99,30.172.581-2.846,3.829.874c-.064.325-.134.676-.211,1.04-1.863,9.336-5.743,29.2-6.464,37.249a130.507,130.507,0,0,1-4.231,21.7l-1.914,35.628,12.195.594-.134,1.276a4.007,4.007,0,0,1-2.068,3.108c-4.174,2.265-14.039,10.21-13.248,34.728l-.421,3.944a49.544,49.544,0,0,1-5.954,19.023c-.281.5-.53.976-.74,1.436a1.174,1.174,0,0,1,.332-.683s-6.337,1.315-5.035,18.436,3.254,20.114,5.858,20.325,15.316,3.318,14.633-2.993-1.276-20.331-.434-22.469,4.3-7.907,1.021-9.3h0a48.9,48.9,0,0,0,1.372-12s6.382-10.057,10.944-13.8,7.02-10.108,8.672-18.3c.115-.536,13.446-9.419,11.487-16.8-.345-1.276-.594-2.406-.785-3.427-.083-.453-.153-.881-.217-1.276h.236l2.712-16.266v15.839l1.608.211-.057,1.276-.683,15.188a25.007,25.007,0,0,1-1.914,8.6c-2.872,6.8-8.168,21.927-6.726,38.289l-.153,14.588c-.459.089-7.083,1.653-5.826,18.187,1.276,17.115,3.248,20.114,5.852,20.325s15.315,3.318,14.639-2.993-1.276-20.331-.434-22.469,2.361-7.792-.919-9.183a12.228,12.228,0,0,1,1.366-5.507c1.429-2.431,6.2-13.988,9.8-22.877a81.883,81.883,0,0,0,6.031-28.289q0-.163,0-.325a26.521,26.521,0,0,1,2.074-9.528,61.421,61.421,0,0,0,3.471-10.472c.089-.427.16-.842.223-1.276l3.114.415,10.631-46.01s2.91-24.939,1.487-36.2c-.058-.466-.121-.893-.2-1.308l.638.057s2.17-5.558,1.519-29.316,4.34-31.269,4.34-31.269c2.693-8.538,5.667-11.4,7.4-12.354h0a3.133,3.133,0,0,1,1.487-.485l8.047,9.208h0l1.48,1.7a.528.528,0,0,0,0-.1l.638.747a6.858,6.858,0,0,1-.051-1.142c4.295,2.5,14.218,8.328,20.14,12.514,7.722,5.456,9.84,4.818,16.592,4.25,4.1-.338,9.636-2.636,13.35-4.384l.338-.16a16.3,16.3,0,0,0,3.14,1.276s10.9,9.234,11.952-7.619S693.075,256.249,693.075,256.249Zm-282.7,196.268a15.764,15.764,0,0,1-3.191-1.346ZM393.313,270.084l.038,2.393-.166.077C393.236,271.711,393.275,270.882,393.313,270.084Zm170.474,213.6v.932A.683.683,0,0,1,563.787,483.684Z" transform="translate(-189.632 -76.789)" fill="url(#linear-gradient)"/>
    <rect id="Retângulo_1" data-name="Retângulo 1" width="18.506" height="19.463" transform="translate(390.441 126.494)" fill="#ff7590"/>
    <path id="Caminho_858" data-name="Caminho 858" d="M662.825,604.445c-1.627,8.136-4.039,14.46-8.506,18.187s-10.74,13.72-10.74,13.72c-.108,13.293-3.618,17.332-3.618,17.332l-3.618.957h-8.934a44.213,44.213,0,0,1-1.915-7.122c-.108-.887.523-2.374,1.4-3.969a49.731,49.731,0,0,0,5.839-18.908l.415-3.924c-.753-24.358,8.934-32.265,13-34.517a3.982,3.982,0,0,0,2.023-3.089h0l.721-6.962,24.033,1.18s-.51,2.119.4,7.02c.185,1.015.434,2.144.766,3.4C676.009,595.084,662.927,603.909,662.825,604.445Z" transform="translate(-294.872 -253.216)" fill="#8e5362"/>
    <path id="Caminho_859" data-name="Caminho 859" d="M727.754,589.013a61.96,61.96,0,0,1-3.4,10.408,26.727,26.727,0,0,0-2.042,9.47v.325a82.425,82.425,0,0,1-5.916,28.117c-3.529,8.832-8.206,20.325-9.611,22.744-2.336,4.04-.957,10.848-.957,10.848l-13.529-.957.236-22.763c-1.41-16.253,3.784-31.269,6.6-38.053a24.941,24.941,0,0,0,1.914-8.545l.638-15.1.2-4.467s23.917-3.4,25.934,2.023C728.373,584.5,728.239,586.64,727.754,589.013Z" transform="translate(-319.05 -254.606)" fill="#8e5362"/>
    <path id="Caminho_860" data-name="Caminho 860" d="M686.181,584.35,661,583.112l.721-6.962,24.058,1.18S685.25,579.443,686.181,584.35Z" transform="translate(-307.725 -253.216)" opacity="0.1"/>
    <path id="Caminho_861" data-name="Caminho 861" d="M733.075,589.013,707,585.51l.2-4.467s23.918-3.4,25.934,2.023C733.694,584.5,733.56,586.639,733.075,589.013Z" transform="translate(-324.37 -254.606)" opacity="0.1"/>
    <path id="Caminho_862" data-name="Caminho 862" d="M723.432,487.812l-10.421,45.736L682.17,529.4V513.657L679.5,529.834l-37.012-1.812L644.4,492.6a131.373,131.373,0,0,0,4.148-21.588c.721-8,4.512-27.74,6.343-37.012.638-3.057,1-4.984,1-4.984s63.393,13.184,67.541,17.97c.708.817,1.174,2.553,1.461,4.856C726.285,463.027,723.432,487.812,723.432,487.812Z" transform="translate(-301.027 -199.977)" fill="#bdd2e8"/>
    <path id="Caminho_863" data-name="Caminho 863" d="M653.33,519.751s24.951-13.082,31.033-10.319Z" transform="translate(-304.95 -228.936)" opacity="0.1"/>
    <path id="Caminho_864" data-name="Caminho 864" d="M674.66,458.82s20.74,15.743,21.378,19.993Z" transform="translate(-312.668 -210.76)" opacity="0.1"/>
    <path id="Caminho_865" data-name="Caminho 865" d="M665.83,543.8s15-.638,19.782,3.191Z" transform="translate(-309.473 -241.495)" opacity="0.1"/>
    <path id="Caminho_866" data-name="Caminho 866" d="M706.894,517.44s7.128,23.33,4.039,29.712-6.273-1.493-6.273-1.493Z" transform="translate(-323.523 -231.972)" opacity="0.1"/>
    <path id="Caminho_867" data-name="Caminho 867" d="M689.125,708s-7.02,1.066-5.743,18.079,3.191,20,5.743,20.21,15,3.3,14.358-2.98-1.276-20.2-.428-22.335,2.317-7.741-.9-9.125l-.7,3.28s-6.809-6.279-10.848-1.7a17.664,17.664,0,0,0-.836-3.274C689.374,709.155,688.494,708.638,689.125,708Z" transform="translate(-315.768 -300.927)" fill="#494457"/>
    <path id="Caminho_868" data-name="Caminho 868" d="M862.508,365.036s-1.608.9-3.969,2.023c-3.644,1.736-9.074,4.02-13.095,4.358-6.624.562-8.7,1.2-16.273-4.225-5.813-4.161-15.545-9.961-19.782-12.437l-1.844-1.091-.185-.109v-.077l3.516-9.662L823.32,337.2l3.089,2.648,9.2,7.881s1.436,2.31,3.752,2.151,14.677.874,14.677.874l2.336.383,4.92.817Z" transform="translate(-360.686 -166.751)" fill="#8e5362"/>
    <path id="Caminho_869" data-name="Caminho 869" d="M888.883,372.95s-1.608.9-3.969,2.023c-2.495-1.276-5.6-3.669-4.4-7.607,1.078-3.542,1.372-6.3,2.259-8.3l4.92.817Z" transform="translate(-387.06 -174.665)" opacity="0.1"/>
    <path id="Caminho_870" data-name="Caminho 870" d="M887.572,353.585s13.88-3.988,12.846,12.763-11.729,7.581-11.729,7.581-9.094-2.393-7.179-8.7S882.869,355.1,887.572,353.585Z" transform="translate(-387.422 -172.53)" fill="#8e5362"/>
    <path id="Caminho_871" data-name="Caminho 871" d="M635.945,208.225l-14.46,6.075-.223.1-.159-.077-.9-.453c-3.74-1.863-16.592-8.238-24.677-12.023-9.572-4.467-8.085-8.934-8.085-8.934l-1.378-46.8-2.45-8.4s-1.729-28.487,12.125-35.628,4.895,41.262,4.895,41.262L601.7,153.4a107.7,107.7,0,0,0,3.8,19,29.5,29.5,0,0,1,1.123,6.26c.428,6.8,3.618,6.35,3.618,6.35a44.419,44.419,0,0,1,14.384,4.888,35.963,35.963,0,0,1,4.761,3.012Z" transform="translate(-279.696 -81.412)" fill="#8e5362"/>
    <path id="Caminho_872" data-name="Caminho 872" d="M739.332,285.485l-12.342-1.276a47.416,47.416,0,0,0,5.239-10.676,18.121,18.121,0,0,0,.542-2.2,7.344,7.344,0,0,0-.676-5.418c-3.612-5.316,21.486-12.763,21.486-12.763a61.309,61.309,0,0,0-.274,8.857,44.811,44.811,0,0,0,.638,6.133c.759,4.129,2.272,8.015,5.156,10.006C766.982,283.57,739.332,285.485,739.332,285.485Z" transform="translate(-331.604 -136.337)" fill="#8e5362"/>
    <path id="Caminho_873" data-name="Caminho 873" d="M739.332,293.985l-12.342-1.276a47.416,47.416,0,0,0,5.239-10.676c1.423,2.023,1.914,1.978,3.912,2.38,0,0,12.457,1.844,17.817-7.773.759,4.129,2.272,8.015,5.156,10.006C766.982,292.07,739.332,293.985,739.332,293.985Z" transform="translate(-331.604 -144.837)" opacity="0.1"/>
    <path id="Caminho_874" data-name="Caminho 874" d="M809.433,354.755a6.833,6.833,0,0,0,.051,1.136l-1.914-2.227-.16-.185,3.516-9.662L823.37,337.2l3.089,2.648C822.036,341.539,809.631,346.906,809.433,354.755Z" transform="translate(-360.704 -166.751)" opacity="0.1"/>
    <path id="Caminho_875" data-name="Caminho 875" d="M656.61,258.417l-14.46,6.075h-.383l-1.117.077s.083-.185.217-.53c1.206-2.929,6.8-17.23,4.384-23.969a35.953,35.953,0,0,1,4.761,3.012Z" transform="translate(-300.361 -131.604)" opacity="0.1"/>
    <path id="Caminho_876" data-name="Caminho 876" d="M731.928,451.824c-5.628-.5-61.938-5.711-67.19-14a29.137,29.137,0,0,0-2.808-3.829c.638-3.057,1-4.984,1-4.984s63.393,13.184,67.541,17.97C731.175,447.784,731.641,449.514,731.928,451.824Z" transform="translate(-308.061 -199.973)" opacity="0.1"/>
    <path id="Caminho_877" data-name="Caminho 877" d="M705.626,271.365s12.591,1.863,17.913-7.919c0,0,8.889,7.3,14.205,7.926s29.993,31.69,29.993,31.69-19.782,6.381-18.506,16.592l-9.362-10.848s-4.678-.217-8.717,12.763c0,0-4.895,7.441-4.257,31.052s-1.487,29.144-1.487,29.144-62.117-5.316-67.643-14.039-6.381-4.467-6.381-4.467-.855-16.592,4.888-29.993,4.467-51.9,4.467-51.9.638-18.934-18.079-17.23c0,0,7.868-18.3,4.256-25.315,0,0,10.766,2.923,18.436,3.012a31.537,31.537,0,0,1,13.58,3.191,15.062,15.062,0,0,1,5.635,4.25c3.612,5.105,9.572,2.77,9.572,2.77a96.6,96.6,0,0,0,5.552,13.612c.249.466.5.925.753,1.366a20.921,20.921,0,0,0,1.136,1.8C703.112,271.008,703.546,270.951,705.626,271.365Z" transform="translate(-301.089 -131.152)" fill="#ff7590"/>
    <path id="Caminho_878" data-name="Caminho 878" d="M756.011,261.978a21.868,21.868,0,0,1-2.259,2.712,22.265,22.265,0,0,1-15.954,6.726,22.956,22.956,0,0,1-2.3-.115,7.345,7.345,0,0,0-.676-5.418c-3.612-5.316,21.486-12.763,21.486-12.763A61.3,61.3,0,0,0,756.011,261.978Z" transform="translate(-334.308 -136.326)" opacity="0.1"/>
    <path id="Caminho_879" data-name="Caminho 879" d="M749.33,233.155a22.252,22.252,0,1,1-6.517-15.818A22.335,22.335,0,0,1,749.33,233.155Z" transform="translate(-323.523 -121.02)" fill="#8e5362"/>
    <path id="Caminho_880" data-name="Caminho 880" d="M792,325.805l.459,14.945s6.669-5.373,6.879-10.478S792,325.805,792,325.805Z" transform="translate(-355.128 -162.619)" opacity="0.1"/>
    <path id="Caminho_881" data-name="Caminho 881" d="M707.66,349.24s17.549,24.09,27.759,26.534S711.489,357.051,707.66,349.24Z" transform="translate(-324.609 -171.108)" opacity="0.1"/>
    <path id="Caminho_882" data-name="Caminho 882" d="M736.83,353.17s9.783,11.053,16.8,12.431Z" transform="translate(-335.164 -172.53)" opacity="0.1"/>
    <path id="Caminho_883" data-name="Caminho 883" d="M682.83,396.82s17.868,17.549,28.078,18.615Z" transform="translate(-315.624 -188.325)" opacity="0.1"/>
    <path id="Caminho_884" data-name="Caminho 884" d="M753.093,233.153a22.252,22.252,0,0,1-6.381,15.609l-2.451-1.525a6.774,6.774,0,0,1-2.387-2.074c-.811-1.353-.574-3.05-.511-4.627.134-3.338-.785-6.949-3.395-9.036-4.231-3.389-11.014-1.512-15.315-4.837a15.1,15.1,0,0,1-2.712-3.018l-4.033-5.405c-.242-.319-.536-.638-.849-1.015a22.335,22.335,0,0,1,38,15.954Z" transform="translate(-327.287 -121.018)" opacity="0.1"/>
    <path id="Caminho_885" data-name="Caminho 885" d="M716.045,196.428c2-1.525,4.435-2.329,6.681-3.452s4.231-2.553,6.477-3.51a10.2,10.2,0,0,1,7.173-.721c5,1.717,6.886,8.7,12.023,9.923.868.2,1.761.223,2.635.357a12,12,0,0,1,8.073,5.648,18.8,18.8,0,0,1,2.552,9.706,15.552,15.552,0,0,1-.81,5.571c-1.519,4.167-5.328,7.02-7.9,10.625a20.2,20.2,0,0,0-3.695,11.8l-6.228-3.874a6.712,6.712,0,0,1-2.387-2.074c-.811-1.353-.575-3.05-.511-4.627.134-3.338-.785-6.949-3.389-9.036-4.237-3.389-11.021-1.512-15.315-4.837a15.094,15.094,0,0,1-2.712-3.018L714.68,209.5c-.874-1.174-2.552-2.636-2.935-4.065C710.9,202.362,713.8,198.157,716.045,196.428Z" transform="translate(-326.032 -112.894)" fill="#362133"/>
    <path id="Caminho_886" data-name="Caminho 886" d="M743.715,242.67a6.713,6.713,0,0,1-2.387-2.074c-.811-1.353-.574-3.05-.511-4.627.134-3.337-.785-6.949-3.395-9.036-4.231-3.389-11.014-1.512-15.316-4.837a15.1,15.1,0,0,1-2.712-3.018l-4.033-5.405c-.881-1.174-2.553-2.636-2.935-4.065-.7-2.463,1.066-5.673,2.948-7.728-2.112,1.953-4.429,5.66-3.644,8.424.408,1.429,2.061,2.891,2.936,4.065l4.033,5.405a15.1,15.1,0,0,0,2.712,3.018c4.282,3.325,11.065,1.449,15.315,4.837,2.6,2.087,3.523,5.7,3.389,9.036-.064,1.576-.3,3.274.51,4.627a6.716,6.716,0,0,0,2.387,2.074l6.228,3.874a10.565,10.565,0,0,1,.038-1.1Z" transform="translate(-326.026 -117.785)" opacity="0.1"/>
    <path id="Caminho_887" data-name="Caminho 887" d="M624.171,682.94s-6.216,1.276-4.939,18.321,3.191,20,5.743,20.21,15,3.3,14.358-2.98-1.276-20.2-.428-22.335,4.218-7.855,1-9.24l-2.6,3.395s-6.809-6.279-10.848-1.7C626.462,688.607,622.684,684.427,624.171,682.94Z" transform="translate(-292.548 -291.859)" fill="#494457"/>
    <path id="Caminho_888" data-name="Caminho 888" d="M633.23,699.5c1.346.638,2.6,1.417,3.944,2.055a8.853,8.853,0,0,0,4.282,1.008,2.986,2.986,0,0,0,1.749-.606" transform="translate(-297.676 -297.851)" opacity="0.1"/>
    <path id="Caminho_889" data-name="Caminho 889" d="M697.33,725.62a21.643,21.643,0,0,0,2.316,2.278,8.083,8.083,0,0,0,4.467.925,1.811,1.811,0,0,0,.766-.1,1.863,1.863,0,0,0,.683-.638l.836-1.079" transform="translate(-320.871 -307.303)" opacity="0.1"/>
    <path id="Caminho_890" data-name="Caminho 890" d="M532.812,269.911s-2.872-27.223,8.3-20.523S544.586,268,544.586,268l-2.623,8.4Z" transform="translate(-261.219 -134.592)" fill="#ffc1c7"/>
    <path id="Caminho_891" data-name="Caminho 891" d="M561,126.588l6.382-6.267s12.233-35.206,24.358-26.164-15.366,31.907-15.366,31.907l-7.288,8.506Z" transform="translate(-271.539 -78.268)" fill="#ffc1c7"/>
    <path id="Caminho_892" data-name="Caminho 892" d="M414.479,362.068l-.319,7.23s5.852,10.21,8.3,10.957,2.234-21.595,2.234-21.595Z" transform="translate(-218.405 -174.516)" fill="#ff5374"/>
    <path id="Caminho_893" data-name="Caminho 893" d="M414.479,362.068l-.319,7.23s5.852,10.21,8.3,10.957,2.234-21.595,2.234-21.595Z" transform="translate(-218.405 -174.516)" opacity="0.1"/>
    <path id="Caminho_894" data-name="Caminho 894" d="M334.76,284.87l.434,26.649h29.667l-2.233-15.526Z" transform="translate(-128.903 -105.257)" fill="#ffc1c7"/>
    <path id="Caminho_895" data-name="Caminho 895" d="M438.963,455.82l1.385,8.506,17.339,38.506s7.868,12.125,1.487,22.335-12.973,26.164-14.039,35.838-9.464,19.144-9.464,19.144l18.3,7.766s1.276-15.207,6.381-22.335,21.48-38.5,21.48-38.5,5.214-4.684,4.046-18.615-1.066-23.72-1.066-23.72L483,462.521Z" transform="translate(-226.188 -209.674)" fill="#575988"/>
    <path id="Caminho_896" data-name="Caminho 896" d="M438.963,455.82l1.385,8.506,17.339,38.506s7.868,12.125,1.487,22.335-12.973,26.164-14.039,35.838-9.464,19.144-9.464,19.144l18.3,7.766s1.276-15.207,6.381-22.335,21.48-38.5,21.48-38.5,5.214-4.684,4.046-18.615-1.066-23.72-1.066-23.72L483,462.521Z" transform="translate(-226.188 -209.674)" opacity="0.1"/>
    <path id="Caminho_897" data-name="Caminho 897" d="M429.994,648.82s-19.572,5.954-13.082,15.743,27.549,28.4,36.055,27.76,5.105-6.918,5.105-6.918l-7.128-7.02s-1.276-14.888-.74-19.246-6.062-6.381-6.918-3.829S429.994,648.82,429.994,648.82Z" transform="translate(-218.923 -279.512)" fill="#c4747b"/>
    <path id="Caminho_898" data-name="Caminho 898" d="M444.344,375.58,428.83,377.3a5.565,5.565,0,0,0-4.952,5.673c.166,6.2.274,16.068-.593,17.868-1.276,2.661-5.207,21.595,11.806,34.46l23.082,7.339L421.16,445.3l1.174,20.529,5.743-3.191,70.2,3.191s19.891-2.023,6.381-23.611-42.22-42.756-42.22-42.756l-.319-16.809-2.131-4.888Z" transform="translate(-220.938 -180.639)" fill="#575988"/>
    <path id="Caminho_899" data-name="Caminho 899" d="M487.66,479.206a19.936,19.936,0,0,1,15.954,0Z" transform="translate(-245.001 -217.534)" opacity="0.1"/>
    <path id="Caminho_900" data-name="Caminho 900" d="M410.972,483.974S388.107,480.681,388,485.04s3.191,46.8,14.148,43.924,6.273-16.911,6.273-16.911l8.194-7.868s.849-4.359-4.576-3.937Z" transform="translate(-208.937 -219.43)" fill="#c4747b"/>
    <path id="Caminho_901" data-name="Caminho 901" d="M480.8,290.793l9.036,10.319s3.937,4.895,8.615-2.553,13.4-20.74,13.4-20.74,9.681,8.506,12.233,6.809-23.5,35.423-23.5,35.423-8.3,12.227-20.637-2.233l-3.612-1.7Z" transform="translate(-240.901 -145.264)" fill="#ff5374"/>
    <path id="Caminho_902" data-name="Caminho 902" d="M480.8,290.793l9.036,10.319s3.937,4.895,8.615-2.553,13.4-20.74,13.4-20.74,9.681,8.506,12.233,6.809-23.5,35.423-23.5,35.423-8.3,12.227-20.637-2.233l-3.612-1.7Z" transform="translate(-240.901 -145.264)" opacity="0.1"/>
    <circle id="Elipse_2" data-name="Elipse 2" cx="18.825" cy="18.825" r="18.825" transform="translate(193.426 65.946)" fill="#ffc1c7"/>
    <path id="Caminho_903" data-name="Caminho 903" d="M429.837,191.258s-16.177,7.658-14.262,21.059a296.314,296.314,0,0,1,2.234,30.312s7.345,10.848-2.393,31.588c0,0-6.222,10.529-2.074,18.187,0,0,4.6-12.125,16.5-3.191s31.046,13.082,31.046,13.082-9.891-43.394-3.829-49.456c0,0,10.529-15.635.957-25.526s-4.786-19.144-4.786-19.144l30.739-16.483s6.484.1,15.207-13.51a234.426,234.426,0,0,1,18.615-24.888s-6.6-9.891-12.763-10.638c0,0-2.45,2.553-4.148,9.47-.906,3.669-7.064,9.8-12.635,14.748-3.957,3.51-7.773,7.154-11.582,10.848-2.821,2.712-9.1,6.592-22.795,8.787C431.324,190.1,429.837,191.258,429.837,191.258Z" transform="translate(-217.592 -96.352)" opacity="0.1"/>
    <path id="Caminho_904" data-name="Caminho 904" d="M429.837,189.258s-16.177,7.658-14.262,21.059a296.314,296.314,0,0,1,2.234,30.312s7.345,10.848-2.393,31.588c0,0-6.222,10.529-2.074,18.187,0,0,4.6-12.125,16.5-3.191s31.046,13.082,31.046,13.082-9.891-43.394-3.829-49.456c0,0,10.529-15.635.957-25.526s-4.786-19.144-4.786-19.144l30.739-16.483s6.484.1,15.207-13.51a234.427,234.427,0,0,1,18.615-24.888s-6.6-9.891-12.763-10.638c0,0-2.45,2.553-4.148,9.47-.906,3.669-7.064,9.8-12.635,14.748-3.957,3.51-7.773,7.154-11.582,10.848-2.821,2.712-9.1,6.592-22.795,8.787C431.324,188.1,429.837,189.258,429.837,189.258Z" transform="translate(-217.592 -95.628)" fill="#ff5374"/>
    <path id="Caminho_905" data-name="Caminho 905" d="M461.83,342.49S474.376,361,474.7,364.187C474.7,364.187,472.787,344.3,461.83,342.49Z" transform="translate(-235.654 -168.665)" opacity="0.1"/>
    <path id="Caminho_906" data-name="Caminho 906" d="M436,244.82s8.749,10.529,21.391,1.7A27.115,27.115,0,0,1,436,244.82Z" transform="translate(-226.307 -133.323)" opacity="0.1"/>
    <path id="Caminho_907" data-name="Caminho 907" d="M408.849,165a5.647,5.647,0,0,0-1.378-2.553c-2.884-3.618-6.018-7.332-10.312-9.049a14.256,14.256,0,0,0-16.266,4.633c-1.544,2.08-2.463,4.556-3.8,6.783a30.09,30.09,0,0,1-10.37,9.815c-2.47,1.512-5.073,2.821-7.4,4.537-8.468,6.235-12.38,17.76-10.249,28.078.938,4.518,2.923,8.972,2.387,13.561-.415,3.561-2.31,6.752-4.231,9.776s-3.969,6.088-4.735,9.572.038,7.613,2.929,9.725a24.347,24.347,0,0,1,3.261,2.208,10.6,10.6,0,0,1,1.5,2.387,23.465,23.465,0,0,0,14.569,11.487c2.744.721,6.426.459,7.428-2.2a5.74,5.74,0,0,1,.517-1.346c.906-1.276,2.9-.562,4.308.172a26.667,26.667,0,0,0,10.293,2.955,8.582,8.582,0,0,0,4.218-.5,7.791,7.791,0,0,0,2.84-2.457c3.357-4.371,4.32-10.083,4.895-15.564a36.362,36.362,0,0,0-.045-10.721c-1.085-5.654-4.524-10.938-4.014-16.668.542-6.126,5.514-11.136,6.273-17.23a13.139,13.139,0,0,0-2.24-9.055,12.944,12.944,0,0,1-1.7-2.667,2.648,2.648,0,0,1,.51-2.929,4.471,4.471,0,0,1,1.327-.638c4.1-1.576,6.292-5.686,6.586-9.891a21.98,21.98,0,0,1,.44-4.62C407.088,170.194,409.213,167.565,408.849,165Z" transform="translate(-192.374 -99.915)" opacity="0.1"/>
    <path id="Caminho_908" data-name="Caminho 908" d="M406.849,165a5.647,5.647,0,0,0-1.378-2.553c-2.884-3.618-6.018-7.332-10.312-9.049a14.256,14.256,0,0,0-16.266,4.633c-1.544,2.08-2.463,4.556-3.8,6.783a30.09,30.09,0,0,1-10.37,9.815c-2.47,1.512-5.073,2.821-7.4,4.537-8.468,6.235-12.38,17.76-10.249,28.078.938,4.518,2.923,8.972,2.387,13.561-.415,3.561-2.31,6.752-4.231,9.776s-3.969,6.088-4.735,9.572.038,7.613,2.929,9.725a24.359,24.359,0,0,1,3.261,2.208,10.6,10.6,0,0,1,1.5,2.387,23.465,23.465,0,0,0,14.569,11.487c2.744.721,6.426.459,7.428-2.2a5.742,5.742,0,0,1,.517-1.346c.906-1.276,2.9-.562,4.308.172a26.668,26.668,0,0,0,10.293,2.955,8.583,8.583,0,0,0,4.218-.5,7.792,7.792,0,0,0,2.84-2.457c3.357-4.371,4.32-10.083,4.895-15.564a36.364,36.364,0,0,0-.045-10.721c-1.085-5.654-4.525-10.938-4.014-16.668.542-6.126,5.514-11.136,6.273-17.23a13.139,13.139,0,0,0-2.24-9.055,12.953,12.953,0,0,1-1.7-2.667,2.648,2.648,0,0,1,.51-2.929,4.469,4.469,0,0,1,1.327-.638c4.1-1.576,6.292-5.686,6.586-9.891a21.978,21.978,0,0,1,.44-4.62C405.088,170.194,407.213,167.565,406.849,165Z" transform="translate(-191.65 -99.915)" fill="#bb7684"/>
    <g id="Grupo_511" data-name="Grupo 511" transform="translate(172.75 52.559)" opacity="0.1">
      <path id="Caminho_909" data-name="Caminho 909" d="M382.507,324.3a6.011,6.011,0,0,0-.523,1.346c-.593,1.583-2.144,2.31-3.874,2.489,2.406.243,4.978-.338,5.788-2.489a6,6,0,0,1,.523-1.346,1.6,1.6,0,0,1,.638-.542A2.191,2.191,0,0,0,382.507,324.3Z" transform="translate(-378.11 -214.386)"/>
      <path id="Caminho_910" data-name="Caminho 910" d="M432.587,164.981a5.508,5.508,0,0,0-1.378-2.553c-2.884-3.618-6.018-7.332-10.312-9.049a13.4,13.4,0,0,0-5.871-.881,13.034,13.034,0,0,1,3.956.881c4.295,1.717,7.428,5.431,10.312,9.049a5.507,5.507,0,0,1,1.378,2.553c.364,2.553-1.755,5.2-2.457,7.562a20.011,20.011,0,0,0-.44,4.62c-.3,4.2-2.482,8.3-6.592,9.891a4.469,4.469,0,0,0-1.327.638,2.648,2.648,0,0,0-.5,2.935,12.919,12.919,0,0,0,1.7,2.667,13.126,13.126,0,0,1,2.246,9.049c-.766,6.107-5.743,11.11-6.279,17.23-.51,5.743,2.935,11.014,4.014,16.662a36.577,36.577,0,0,1,.045,10.721c-.574,5.482-1.531,11.2-4.895,15.564a7.766,7.766,0,0,1-2.833,2.457,6.345,6.345,0,0,1-2.087.517,8.252,8.252,0,0,0,4-.517,7.766,7.766,0,0,0,2.853-2.412c3.363-4.365,4.32-10.083,4.895-15.564a36.365,36.365,0,0,0-.045-10.721c-1.079-5.648-4.524-10.938-4.014-16.662.549-6.133,5.514-11.136,6.279-17.23a13.127,13.127,0,0,0-2.246-9.049,12.922,12.922,0,0,1-1.7-2.667,2.648,2.648,0,0,1,.5-2.935,4.467,4.467,0,0,1,1.327-.638c4.11-1.583,6.292-5.692,6.592-9.891a21.527,21.527,0,0,1,.44-4.62C430.832,170.182,432.951,167.553,432.587,164.981Z" transform="translate(-390.105 -152.462)"/>
    </g>
    <path id="Caminho_911" data-name="Caminho 911" d="M406.82,525a8.621,8.621,0,0,0,8.826,2.438" transform="translate(-215.749 -234.707)" opacity="0.1"/>
    <path id="Caminho_912" data-name="Caminho 912" d="M468.4,696a5.418,5.418,0,0,1-4.4,1.11" transform="translate(-236.439 -296.585)" opacity="0.1"/>
    <ellipse id="Elipse_3" data-name="Elipse 3" cx="17.185" cy="2.904" rx="17.185" ry="2.904" transform="translate(42.148 413.416)" fill="#fec335"/>
    <ellipse id="Elipse_4" data-name="Elipse 4" cx="17.185" cy="2.904" rx="17.185" ry="2.904" transform="translate(517.835 462.232)" fill="#fcb618"/>
    <ellipse id="Elipse_5" data-name="Elipse 5" cx="17.185" cy="2.904" rx="17.185" ry="2.904" transform="translate(512.639 415.344)" fill="#fcb618" opacity="0.1"/>
    <ellipse id="Elipse_6" data-name="Elipse 6" cx="17.185" cy="2.904" rx="17.185" ry="2.904" transform="translate(90.876 440.378)" fill="#fec335"/>
    <ellipse id="Elipse_7" data-name="Elipse 7" cx="25.66" cy="4.339" rx="25.66" ry="4.339" transform="translate(558.515 438.942)" fill="#fcb618"/>
    <ellipse id="Elipse_20" data-name="Elipse 20" cx="25.66" cy="4.339" rx="25.66" ry="4.339" transform="translate(-18.165 460.942)" fill="#fcb618"/>
    <ellipse id="Elipse_8" data-name="Elipse 8" cx="57.918" cy="9.789" rx="57.918" ry="9.789" transform="translate(162.616 467.461)" fill="#fec335"/>
    <path id="Caminho_913" data-name="Caminho 913" d="M1025.995,746.915a7.485,7.485,0,0,0,2.45-3.695,3.289,3.289,0,0,0-1.71-3.759c-1.57-.6-3.248.485-4.518,1.589s-2.731,2.348-4.4,2.119a6.681,6.681,0,0,0,2.068-6.26,2.627,2.627,0,0,0-.574-1.276c-.874-.932-2.451-.53-3.5.2-3.319,2.336-4.244,6.841-4.263,10.9a20.474,20.474,0,0,1-.057-4.467c-.006-1.481-.421-3.191-1.685-3.976a5.151,5.151,0,0,0-2.553-.638c-1.493-.051-3.152.1-4.173,1.187-1.276,1.359-.938,3.631.166,5.105a16.681,16.681,0,0,0,4.314,3.459,9.571,9.571,0,0,1,3.089,2.942,3.241,3.241,0,0,1,.23.523h9.349a26,26,0,0,0,5.763-3.956Z" transform="translate(-431.214 -310.729)" fill="#fcb618"/>
    <path id="Caminho_954" data-name="Caminho 954" d="M1025.995,746.915a7.485,7.485,0,0,0,2.45-3.695,3.289,3.289,0,0,0-1.71-3.759c-1.57-.6-3.248.485-4.518,1.589s-2.731,2.348-4.4,2.119a6.681,6.681,0,0,0,2.068-6.26,2.627,2.627,0,0,0-.574-1.276c-.874-.932-2.451-.53-3.5.2-3.319,2.336-4.244,6.841-4.263,10.9a20.474,20.474,0,0,1-.057-4.467c-.006-1.481-.421-3.191-1.685-3.976a5.151,5.151,0,0,0-2.553-.638c-1.493-.051-3.152.1-4.173,1.187-1.276,1.359-.938,3.631.166,5.105a16.681,16.681,0,0,0,4.314,3.459,9.571,9.571,0,0,1,3.089,2.942,3.241,3.241,0,0,1,.23.523h9.349a26,26,0,0,0,5.763-3.956Z" transform="translate(-1007.894 -288.729)" fill="#fcb618"/>
    <path id="Caminho_914" data-name="Caminho 914" d="M940.831,795.5a7.473,7.473,0,0,0,2.444-3.695,3.3,3.3,0,0,0-1.71-3.759c-1.57-.6-3.248.485-4.518,1.589s-2.731,2.348-4.4,2.119a6.682,6.682,0,0,0,2.068-6.26,2.552,2.552,0,0,0-.575-1.276c-.868-.932-2.45-.53-3.491.2-3.318,2.336-4.244,6.841-4.263,10.9a20.088,20.088,0,0,1-.064-4.467c-.006-1.481-.421-3.191-1.685-3.976a5.1,5.1,0,0,0-2.552-.606c-1.493-.051-3.153.1-4.173,1.187-1.276,1.359-.938,3.631.166,5.105a16.607,16.607,0,0,0,4.32,3.459,9.577,9.577,0,0,1,3.082,2.942,3.241,3.241,0,0,1,.23.523h9.349A26.169,26.169,0,0,0,940.831,795.5Z" transform="translate(-395.199 -337.312)" fill="#fcb618"/>
    <path id="Caminho_915" data-name="Caminho 915" d="M305.239,656.886s-8.966-30.446,1.685-52.851a48.091,48.091,0,0,0,3.905-30.184,80.762,80.762,0,0,0-4.269-14.16" transform="translate(-177.714 -247.26)" fill="none" stroke="#535461" stroke-miterlimit="10" stroke-width="2"/>
    <path id="Caminho_916" data-name="Caminho 916" d="M312,533.55c0,3.733-6.758,14.55-6.758,14.55s-6.752-10.817-6.752-14.55a6.758,6.758,0,1,1,13.51,0Z" transform="translate(-176.547 -235.281)" fill="#fcb618"/>
    <path id="Caminho_917" data-name="Caminho 917" d="M329.46,564.064c-2.029,3.127-13.58,8.538-13.58,8.538s.211-12.763,2.24-15.883a6.758,6.758,0,0,1,11.34,7.345Z" transform="translate(-182.841 -245.125)" fill="#fcb618"/>
    <path id="Caminho_918" data-name="Caminho 918" d="M327.307,618.027c-3.331,1.685-16.037.523-16.037.523s6.618-10.906,9.949-12.584a6.758,6.758,0,0,1,6.088,12.061Z" transform="translate(-181.173 -263.773)" fill="#fcb618"/>
    <path id="Caminho_919" data-name="Caminho 919" d="M317.478,660.175c-3,2.214-15.717,3.191-15.717,3.191s4.684-11.87,7.658-14.09a6.758,6.758,0,0,1,8.034,10.849Z" transform="translate(-177.732 -279.266)" fill="#fcb618"/>
    <path id="Caminho_920" data-name="Caminho 920" d="M292.55,577.9c2.68,2.6,15.143,5.29,15.143,5.29s-3.05-12.386-5.743-14.984a6.758,6.758,0,0,0-9.413,9.693Z" transform="translate(-173.697 -249.693)" fill="#fcb618"/>
    <path id="Caminho_921" data-name="Caminho 921" d="M280.461,626.126c3.331,1.678,16.03.517,16.03.517s-6.618-10.906-9.949-12.584a6.757,6.757,0,1,0-6.082,12.068Z" transform="translate(-168.679 -266.671)" fill="#fcb618"/>
    <path id="Caminho_922" data-name="Caminho 922" d="M276.932,675.629c3,2.221,15.718,3.191,15.718,3.191s-4.684-11.869-7.658-14.084a6.758,6.758,0,0,0-8.034,10.848Z" transform="translate(-167.862 -284.86)" fill="#fcb618"/>
    <path id="Caminho_923" data-name="Caminho 923" d="M274,702.963s10.919-2.17,13.835-5.06,16.011-7.945,17.466-4.333,19.655,15.9,7.281,18.066-29.119,2.891-32.756,1.448S274,702.963,274,702.963Z" transform="translate(-167.687 -295.251)" fill="#a8a8a8"/>
    <path id="Caminho_924" data-name="Caminho 924" d="M312.6,716.259c-12.374,2.17-29.119,2.891-32.756,1.442-2.776-1.1-4.7-6.381-5.462-8.851l-.383.1s2.182,8.672,5.826,10.121,20.382.721,32.756-1.449c3.574-.638,4.595-2.093,4.212-3.957C316.507,714.855,315.263,715.793,312.6,716.259Z" transform="translate(-167.687 -301.234)" opacity="0.2"/>
    <path id="Caminho_925" data-name="Caminho 925" d="M937.7,659.91s3.51,4.588-1.615,11.487-9.349,12.763-7.658,17.083c0,0,7.734-12.859,14.039-13.038S944.609,667.625,937.7,659.91Z" transform="translate(-404.357 -283.525)" fill="#fcb618"/>
    <path id="Caminho_926" data-name="Caminho 926" d="M937.815,659.91a5.747,5.747,0,0,1,.721,1.442c6.139,7.211,9.406,13.943,3.5,14.109-5.494.16-12.087,9.987-13.669,12.469a5.822,5.822,0,0,0,.185.568s7.734-12.859,14.039-13.037S944.726,667.625,937.815,659.91Z" transform="translate(-404.474 -283.525)" opacity="0.1"/>
    <path id="Caminho_927" data-name="Caminho 927" d="M952.93,668.477c0,1.614-.185,2.923-.408,2.923s-.4-1.276-.4-2.923.223-.855.447-.855S952.93,666.863,952.93,668.477Z" transform="translate(-413.068 -286.247)" fill="#ffd037"/>
    <path id="Caminho_928" data-name="Caminho 928" d="M955.323,671.464c-1.417.772-2.655,1.238-2.757,1.04s.951-.976,2.368-1.749.861-.211.97,0S956.74,670.692,955.323,671.464Z" transform="translate(-413.227 -287.307)" fill="#ffd037"/>
    <path id="Caminho_929" data-name="Caminho 929" d="M909.693,659.91s-3.51,4.588,1.615,11.487,9.349,12.763,7.658,17.083c0,0-7.728-12.859-14.039-13.038S902.769,667.625,909.693,659.91Z" transform="translate(-394.865 -283.525)" fill="#fcb618"/>
    <path id="Caminho_930" data-name="Caminho 930" d="M909.685,659.91a5.757,5.757,0,0,0-.721,1.442c-6.139,7.211-9.406,13.943-3.5,14.109,5.494.16,12.086,9.987,13.669,12.469a4.571,4.571,0,0,1-.191.568S911.21,675.64,904.9,675.462,902.761,667.625,909.685,659.91Z" transform="translate(-394.857 -283.525)" opacity="0.1"/>
    <path id="Caminho_931" data-name="Caminho 931" d="M903.94,668.477c0,1.614.185,2.923.408,2.923s.4-1.276.4-2.923-.223-.855-.447-.855S903.94,666.863,903.94,668.477Z" transform="translate(-395.634 -286.247)" fill="#ffd037"/>
    <path id="Caminho_932" data-name="Caminho 932" d="M899.95,671.464c1.417.772,2.648,1.238,2.757,1.04s-.951-.976-2.367-1.749-.862-.211-.97,0S898.534,670.692,899.95,671.464Z" transform="translate(-393.878 -287.307)" fill="#ffd037"/>
    <path id="Caminho_933" data-name="Caminho 933" d="M905.69,700.762s9.8-.306,12.763-2.406,15.079-4.614,15.813-1.276,14.728,16.777,3.663,16.866-25.711-1.723-28.659-3.516S905.69,700.762,905.69,700.762Z" transform="translate(-396.267 -296.388)" fill="#a8a8a8"/>
    <path id="Caminho_934" data-name="Caminho 934" d="M938.121,715.8c-11.066.089-25.711-1.723-28.659-3.516-2.246-1.366-3.146-6.273-3.44-8.538h-.332s.638,7.906,3.574,9.7,17.594,3.605,28.659,3.516c3.191,0,4.295-1.162,4.237-2.84C941.713,715.154,940.494,715.785,938.121,715.8Z" transform="translate(-396.267 -299.389)" opacity="0.2"/>
  </g>
</svg>
