<svg xmlns="http://www.w3.org/2000/svg" width="61" height="57" viewBox="0 0 61 57">
  <g id="Grupo_636" data-name="Grupo 636" transform="translate(-177 -1305)">
    <circle id="Elipse_23" data-name="Elipse 23" cx="28.5" cy="28.5" r="28.5" transform="translate(177 1305)" fill="#1b8f76"/>
    <path id="check-solid" d="M16.992,101.671.733,85.413a2.5,2.5,0,0,1,0-3.537L4.27,78.338a2.5,2.5,0,0,1,3.537,0L18.76,89.29,42.22,65.831a2.5,2.5,0,0,1,3.537,0l3.537,3.537a2.5,2.5,0,0,1,0,3.537L20.529,101.672a2.5,2.5,0,0,1-3.537,0Z" transform="translate(187.973 1248.193)" fill="#fec335"/>
    <path id="check-solid-2" data-name="check-solid" d="M16.992,101.671.733,85.413a2.5,2.5,0,0,1,0-3.537L4.27,78.338a2.5,2.5,0,0,1,3.537,0L18.76,89.29,42.22,65.831a2.5,2.5,0,0,1,3.537,0l3.537,3.537a2.5,2.5,0,0,1,0,3.537L20.529,101.672a2.5,2.5,0,0,1-3.537,0Z" transform="translate(187.973 1245.232)" fill="#fec335" opacity="0.793"/>
  </g>
</svg>
