<svg xmlns="http://www.w3.org/2000/svg" width="422.217" height="362.773" viewBox="0 0 422.217 362.773">
  <g id="Grupo_648" data-name="Grupo 648" transform="translate(-841.519 -979)">
    <g id="blob-shape_3_" data-name="blob-shape (3)" transform="translate(872 979)" opacity="0.63">
      <path id="Caminho_952" data-name="Caminho 952" d="M98.9-79.255c32.311,23.529,72.754,41.2,81.212,67.658s-14.963,61.8-36.757,96.717-41.853,69.5-74.706,91.187C35.683,197.993-9.965,206.775-36.746,186.933c-26.781-19.951-34.48-68.526-67.984-110.27C-138.233,35.027-197.543.222-208.06-40.872c-10.626-41.2,27.432-88.693,73.188-109.945,45.648-21.252,99.1-16.047,138.027,1.193C42.08-132.276,66.476-102.784,98.9-79.255Z" transform="translate(209.857 164.753)" fill="#20ab8d"/>
    </g>
    <g id="blob-shape_3_2" data-name="blob-shape (3)" transform="translate(841.519 1003)" opacity="0.63">
      <path id="Caminho_952-2" data-name="Caminho 952" d="M19.091-101.354C43.05-83.907,73.04-70.8,79.311-51.184S68.216-5.355,52.055,20.534,21.02,72.071-3.341,88.151c-24.442,16.08-58.291,22.593-78.15,7.879C-101.35,81.237-107.059,45.217-131.9,14.263c-24.844-30.874-68.823-56.683-76.622-87.155-7.879-30.552,20.341-65.768,54.271-81.527,33.849-15.759,73.487-11.9,102.351.884C-23.039-140.671-4.949-118.8,19.091-101.354Z" transform="translate(209.857 164.753)" fill="#20a88b"/>
    </g>
  </g>
</svg>
