<svg xmlns="http://www.w3.org/2000/svg" width="493.527" height="463.691" viewBox="0 0 493.527 463.691">
  <g id="Grupo_647" data-name="Grupo 647" transform="translate(-89.473 -784.552)">
    <g id="blob-shape_4_" data-name="blob-shape (4)" transform="matrix(0.839, -0.545, 0.545, 0.839, 89.473, 1000.623)" opacity="0.63">
      <path id="Caminho_953" data-name="Caminho 953" d="M271.861,2.747c57.48,8.546,129.008,40.037,124.676,75.976s-84.405,76.21-131.466,114.96c-46.944,38.749-60.992,75.859-87.917,91.9-26.808,15.921-66.611,10.77-98.922-5.151C45.8,264.508,20.869,237.817,9.163,208.082s-9.951-62.631-6.907-97.751c3.161-35,7.843-72.464,29.033-87.449,21.072-14.985,58.768-7.609,99.273-11C171.066,8.366,214.381-5.916,271.861,2.747Z" transform="translate(0 0)" fill="#20ab8d"/>
    </g>
    <g id="blob-shape_4_2" data-name="blob-shape (4)" transform="matrix(0.839, -0.545, 0.545, 0.839, 207.11, 967.121)" opacity="0.63">
      <path id="Caminho_953-2" data-name="Caminho 953" d="M207.06,2.092c43.779,6.509,98.257,30.494,94.958,57.867S237.732,118,201.889,147.517c-35.754,29.513-46.454,57.778-66.961,69.993-20.418,12.126-50.734,8.2-75.343-3.923-24.7-12.126-43.69-32.455-52.606-55.1S-.6,110.782,1.718,84.033c2.407-26.66,5.974-55.192,22.112-66.6,16.049-11.413,44.76-5.8,75.61-8.381C130.291,6.372,163.281-4.506,207.06,2.092Z" transform="translate(0 0)" fill="#20a88b"/>
    </g>
  </g>
</svg>
