<svg xmlns="http://www.w3.org/2000/svg" width="43" height="41.208" viewBox="0 0 43 41.208">
  <g id="Grupo_650" data-name="Grupo 650" transform="translate(-139 -2174)">
    <path id="Subtração_4" data-name="Subtração 4" d="M24.176,41.208a7.278,7.278,0,0,1-4.082-1.053A5.766,5.766,0,0,1,17.832,37L11.7,40.532l.055.135a21.5,21.5,0,1,1,25.425-4.454,9.865,9.865,0,0,0-2.314-6.524,12.267,12.267,0,0,0-6.007-3.822l6.812-8.84V11.1H12.788v6.709H27.036l-7.176,9.36,2.756,4.16h1.56a6.3,6.3,0,0,1,4.29,1.352A4.569,4.569,0,0,1,30,36.268a4.548,4.548,0,0,1-1.534,3.614A6.378,6.378,0,0,1,24.176,41.208Z" transform="translate(139 2174)" fill="#457765"/>
  </g>
</svg>
