<svg xmlns="http://www.w3.org/2000/svg" width="850.001" height="172.533" viewBox="0 0 850.001 172.533">
  <g id="Grupo_676" data-name="Grupo 676" transform="translate(-516 -64.999)">
    <path id="Subtração_8" data-name="Subtração 8" d="M-586,192.532h0l-27.51-8.334c-24.084-7.3-60.475-18.323-102.81-28.093-23.27-5.369-45.907-9.784-67.28-13.122a693.79,693.79,0,0,0-71.817-7.617c-11.07-.6-22.472-.889-34.858-.889-28.977,0-58.434,1.652-86.92,3.25l-.031,0-.028,0c-28.506,1.6-57.983,3.253-86.984,3.253-14.569,0-27.894-.4-40.735-1.237-14.333-.93-27.657-2.363-40.734-4.38-11.261-1.674-23.023-3.907-34.96-6.638-11.14-2.548-22.73-5.6-34.45-9.067-20.73-6.136-42.709-13.832-65.324-22.873-18.249-7.3-36.944-15.451-57.152-24.932-17.281-8.109-32.59-15.747-44.892-21.885l-1.917-.956-.364-.182-2.848-1.419L-1436,22.952V21h850Z" transform="translate(1952 45)" fill="#21ad8f"/>
    <path id="Subtração_7" data-name="Subtração 7" d="M-641.885,182.989h0l-44.4-13.451-.031-.009c-22.182-6.72-55.7-16.874-94.672-25.867-21.432-4.945-42.283-9.012-61.972-12.087a639.5,639.5,0,0,0-66.149-7.016c-10.2-.55-20.7-.817-32.1-.817-26.691,0-53.826,1.521-80.067,2.993h-.019l-.033,0c-26.24,1.473-53.374,3-80.122,3-13.43,0-25.7-.373-37.524-1.14-13.2-.856-25.475-2.176-37.523-4.036-10.386-1.544-21.221-3.6-32.2-6.114-10.252-2.345-20.928-5.155-31.733-8.352-19.095-5.652-39.34-12.74-60.172-21.068-16.819-6.724-34.039-14.236-52.644-22.966-15.854-7.438-29.956-14.474-41.287-20.127l-.063-.032-.444-.221-4.278-2.133L-1436,25h794.115V182.988Z" transform="translate(2007.885 40)" fill="#20a88b"/>
  </g>
</svg>
