<svg xmlns="http://www.w3.org/2000/svg" width="200" height="200" viewBox="0 0 200 200">
  <g id="Grupo_655" data-name="Grupo 655" transform="translate(-583 -3567)">
    <g id="Grupo_568" data-name="Grupo 568" transform="translate(1163 142)">
      <rect id="Retângulo_390" data-name="Retângulo 390" width="200" height="200" rx="100" transform="translate(-580 3425)" fill="#457765"/>
      <path id="Subtração_1" data-name="Subtração 1" d="M100,225a100.739,100.739,0,0,1-20.154-2.032,99.451,99.451,0,0,1-35.757-15.047,100.292,100.292,0,0,1-36.231-44,99.5,99.5,0,0,1-5.827-18.771A100.738,100.738,0,0,1,0,125,99.617,99.617,0,0,1,24.606,59.3a100.429,100.429,0,0,1,27.114-21.9A99.08,99.08,0,0,1,85.468,26.048a106.661,106.661,0,0,0-14.5,14.67A84.339,84.339,0,0,0,60.422,57.191,59.733,59.733,0,0,0,55,74.546a44.191,44.191,0,0,0,.855,17.315,51.451,51.451,0,0,0,6.1,13.994A96.867,96.867,0,0,0,72.1,119.387c7.828,8.918,17.3,17.494,27.331,26.575,11.673,10.568,23.744,21.5,33.044,33.054,8.917,11.11,15.137,22.615,19.561,31.4A99.549,99.549,0,0,1,100,225Z" transform="translate(-580 3400)" fill="#487d6a"/>
    </g>
    <g id="review" transform="translate(634.619 3620)">
      <path id="Caminho_956" data-name="Caminho 956" d="M88,216v46.768a6.451,6.451,0,0,0,6.451,6.451h46.768a6.451,6.451,0,0,0,6.451-6.451V216h-3.225v37.092H91.225V216Zm56.444,40.317v6.451a3.226,3.226,0,0,1-3.225,3.225H94.451a3.226,3.226,0,0,1-3.225-3.225v-6.451Zm0,0" transform="translate(-70.26 -172.457)" fill="#fec335"/>
      <path id="Caminho_957" data-name="Caminho 957" d="M232,432h3.225v3.225H232Zm0,0" transform="translate(-185.232 -344.914)" fill="#fec335"/>
      <path id="Caminho_958" data-name="Caminho 958" d="M90.311,6.451h-12.9A6.451,6.451,0,0,0,70.959,0H24.19A6.451,6.451,0,0,0,17.74,6.451H6.451A6.451,6.451,0,0,0,0,12.9V33.867a6.451,6.451,0,0,0,6.451,6.451H51.08l-2.636,9.234a1.612,1.612,0,0,0,2.54,1.714L65.061,40.317h25.25a6.451,6.451,0,0,0,6.451-6.451V12.9A6.451,6.451,0,0,0,90.311,6.451ZM24.19,3.225H70.959a3.226,3.226,0,0,1,3.225,3.225H20.965A3.226,3.226,0,0,1,24.19,3.225ZM93.536,33.867a3.226,3.226,0,0,1-3.225,3.225h-25.8a1.609,1.609,0,0,0-.99.34L52.9,45.689l1.868-6.543a1.613,1.613,0,0,0-1.545-2.054H6.451a3.226,3.226,0,0,1-3.225-3.225V12.9A3.226,3.226,0,0,1,6.451,9.676h83.86A3.226,3.226,0,0,1,93.536,12.9Zm0,0" fill="#fec335"/>
      <path id="Caminho_959" data-name="Caminho 959" d="M43.536,83.687,41.045,83.3l-1.129-2.4A1.613,1.613,0,0,0,37,80.9l-1.129,2.4-2.495.383a1.612,1.612,0,0,0-.911,2.719l1.851,1.9-.44,2.7a1.612,1.612,0,0,0,2.372,1.677l2.21-1.222,2.21,1.222a1.613,1.613,0,0,0,2.372-1.671l-.44-2.7,1.851-1.9a1.612,1.612,0,0,0-.911-2.719Zm-3.817,2.947a1.61,1.61,0,0,0-.437,1.385l.037.223-.084-.045a1.609,1.609,0,0,0-1.561,0l-.084.045.037-.223a1.61,1.61,0,0,0-.437-1.385l-.227-.234.24-.037a1.613,1.613,0,0,0,1.216-.91l.035-.068.035.074a1.611,1.611,0,0,0,1.216.91l.24.037Zm0,0" transform="translate(-25.553 -63.851)" fill="#fec335"/>
      <path id="Caminho_960" data-name="Caminho 960" d="M123.549,83.687l-2.491-.383-1.129-2.4a1.613,1.613,0,0,0-2.918,0l-1.129,2.4-2.491.383a1.612,1.612,0,0,0-.911,2.719l1.851,1.9-.44,2.7a1.613,1.613,0,0,0,2.372,1.671l2.206-1.216,2.21,1.222a1.613,1.613,0,0,0,2.372-1.671l-.44-2.7,1.851-1.9a1.612,1.612,0,0,0-.911-2.719Zm-3.817,2.947a1.61,1.61,0,0,0-.437,1.385l.037.223-.084-.045a1.609,1.609,0,0,0-1.561,0l-.084.045.037-.223a1.61,1.61,0,0,0-.437-1.385l-.227-.234.24-.037a1.613,1.613,0,0,0,1.216-.91l.035-.068.035.074a1.611,1.611,0,0,0,1.216.91l.24.037Zm0,0" transform="translate(-89.439 -63.851)" fill="#fec335"/>
      <path id="Caminho_961" data-name="Caminho 961" d="M203.549,83.687l-2.492-.383-1.129-2.4a1.613,1.613,0,0,0-2.918,0l-1.129,2.4-2.492.383a1.612,1.612,0,0,0-.911,2.719l1.851,1.9-.44,2.7a1.613,1.613,0,0,0,2.372,1.671l2.206-1.216,2.21,1.222a1.613,1.613,0,0,0,2.372-1.671l-.44-2.7,1.851-1.9a1.612,1.612,0,0,0-.911-2.719Zm-3.817,2.947a1.61,1.61,0,0,0-.437,1.385l.037.223-.084-.045a1.609,1.609,0,0,0-1.561,0l-.084.045.037-.223a1.61,1.61,0,0,0-.437-1.385l-.227-.234.24-.037a1.613,1.613,0,0,0,1.216-.91l.035-.068.035.074a1.611,1.611,0,0,0,1.216.91l.24.037Zm0,0" transform="translate(-153.312 -63.851)" fill="#fec335"/>
      <path id="Caminho_962" data-name="Caminho 962" d="M289.981,70.181l-4.72-.721-2.128-4.529a1.612,1.612,0,0,0-2.918,0l-2.128,4.529-4.72.721a1.612,1.612,0,0,0-.911,2.721l3.464,3.547-.821,5.032a1.613,1.613,0,0,0,2.373,1.671l4.2-2.321,4.2,2.322a1.613,1.613,0,0,0,2.373-1.671l-.821-5.031,3.464-3.548a1.612,1.612,0,0,0-.911-2.721Zm-5.429,4.6a1.61,1.61,0,0,0-.437,1.385l.417,2.558-2.077-1.148a1.613,1.613,0,0,0-1.561,0l-2.077,1.148.417-2.558a1.61,1.61,0,0,0-.437-1.385L276.957,72.9l2.469-.38a1.611,1.611,0,0,0,1.216-.908l1.032-2.2,1.032,2.2a1.611,1.611,0,0,0,1.216.908l2.469.38Zm0,0" transform="translate(-217.166 -51.102)" fill="#fec335"/>
      <path id="Caminho_963" data-name="Caminho 963" d="M395.549,83.687l-2.492-.383-1.129-2.4a1.613,1.613,0,0,0-2.918,0l-1.129,2.4-2.491.383a1.612,1.612,0,0,0-.911,2.719l1.851,1.9-.44,2.7a1.613,1.613,0,0,0,2.372,1.671l2.206-1.216,2.21,1.222a1.613,1.613,0,0,0,2.372-1.671l-.44-2.7,1.851-1.9a1.612,1.612,0,0,0-.911-2.719Zm-3.817,2.947a1.61,1.61,0,0,0-.437,1.385l.037.223-.084-.045a1.609,1.609,0,0,0-1.561,0l-.084.045.037-.223a1.61,1.61,0,0,0-.437-1.385l-.227-.234.24-.037a1.613,1.613,0,0,0,1.216-.91l.035-.068.035.074a1.611,1.611,0,0,0,1.216.91l.24.037Zm0,0" transform="translate(-306.607 -63.851)" fill="#fec335"/>
      <path id="Caminho_964" data-name="Caminho 964" d="M120,256.19v6.451h3.225V256.19a4.838,4.838,0,0,1,4.838-4.838h9.676a4.838,4.838,0,0,1,4.838,4.838v6.451H145.8V256.19a8.064,8.064,0,0,0-6.612-7.917,7.978,7.978,0,0,0,1.774-4.985v-3.225a8.063,8.063,0,1,0-16.127,0v3.225a7.978,7.978,0,0,0,1.774,4.985A8.064,8.064,0,0,0,120,256.19Zm8.063-16.127a4.838,4.838,0,0,1,9.676,0v3.225a4.838,4.838,0,1,1-9.676,0Zm0,0" transform="translate(-95.81 -185.232)" fill="#fec335"/>
      <path id="Caminho_965" data-name="Caminho 965" d="M264,304h11.289v3.225H264Zm0,0" transform="translate(-210.781 -242.718)" fill="#fec335"/>
      <path id="Caminho_966" data-name="Caminho 966" d="M336,304h3.225v3.225H336Zm0,0" transform="translate(-268.267 -242.718)" fill="#fec335"/>
      <path id="Caminho_967" data-name="Caminho 967" d="M264,336h6.451v3.225H264Zm0,0" transform="translate(-210.781 -268.267)" fill="#fec335"/>
      <path id="Caminho_968" data-name="Caminho 968" d="M312,336h8.064v3.225H312Zm0,0" transform="translate(-249.105 -268.267)" fill="#fec335"/>
      <path id="Caminho_969" data-name="Caminho 969" d="M264,368h17.74v3.225H264Zm0,0" transform="translate(-210.781 -293.816)" fill="#fec335"/>
      <path id="Caminho_970" data-name="Caminho 970" d="M264,272h17.74v3.225H264Zm0,0" transform="translate(-210.781 -217.168)" fill="#fec335"/>
      <path id="Caminho_971" data-name="Caminho 971" d="M296,240h11.289v3.225H296Zm0,0" transform="translate(-236.33 -191.619)" fill="#fec335"/>
    </g>
  </g>
</svg>
