<svg xmlns="http://www.w3.org/2000/svg" width="200" height="200" viewBox="0 0 200 200">
  <g id="Grupo_660" data-name="Grupo 660" transform="translate(-951 -3956)">
    <g id="Grupo_574" data-name="Grupo 574" transform="translate(971 789)">
      <g id="Grupo_568" data-name="Grupo 568" transform="translate(560 -258)">
        <rect id="Retângulo_390" data-name="Retângulo 390" width="200" height="200" rx="100" transform="translate(-580 3425)" fill="#457765"/>
        <path id="Subtração_1" data-name="Subtração 1" d="M100,225a100.739,100.739,0,0,1-20.154-2.032,99.451,99.451,0,0,1-35.757-15.047,100.292,100.292,0,0,1-36.231-44,99.5,99.5,0,0,1-5.827-18.771A100.738,100.738,0,0,1,0,125,99.617,99.617,0,0,1,24.606,59.3a100.429,100.429,0,0,1,27.114-21.9A99.08,99.08,0,0,1,85.468,26.048a106.661,106.661,0,0,0-14.5,14.67A84.339,84.339,0,0,0,60.422,57.191,59.733,59.733,0,0,0,55,74.546a44.191,44.191,0,0,0,.855,17.315,51.451,51.451,0,0,0,6.1,13.994A96.867,96.867,0,0,0,72.1,119.387c7.828,8.918,17.3,17.494,27.331,26.575,11.673,10.568,23.744,21.5,33.044,33.054,8.917,11.11,15.137,22.615,19.561,31.4A99.549,99.549,0,0,1,100,225Z" transform="translate(-580 3400)" fill="#487d6a"/>
      </g>
    </g>
    <g id="gift" transform="translate(982 4012)">
      <g id="Grupo_575" data-name="Grupo 575" transform="translate(0 0)">
        <path id="Caminho_980" data-name="Caminho 980" d="M95.149,25.8H84.9A14.5,14.5,0,0,0,75.8,0H61.657A14.514,14.514,0,0,0,48.381,8.659,14.514,14.514,0,0,0,35.105,0H20.965a14.5,14.5,0,0,0-9.1,25.8H1.613A1.613,1.613,0,0,0,0,27.416V43.543a1.613,1.613,0,0,0,1.613,1.613H4.838V95.149a1.613,1.613,0,0,0,1.613,1.613h83.86a1.613,1.613,0,0,0,1.613-1.613V45.155h3.225a1.613,1.613,0,0,0,1.613-1.613V27.416A1.613,1.613,0,0,0,95.149,25.8ZM72.937,3.359c.131-.019.26-.045.39-.061a11.2,11.2,0,0,1,1.23-.073H75.8a11.289,11.289,0,1,1,0,22.578H72.008a14.5,14.5,0,0,0,.3-22.329C72.516,3.43,72.726,3.391,72.937,3.359ZM68.752,4.907A11.261,11.261,0,0,1,62.9,25.8H57.3L64.216,9.989A11.258,11.258,0,0,1,68.752,4.907ZM57.336,29.029H68.349l7.617,15.235,5.285,10.568H75.8a1.613,1.613,0,0,0-1.29.645L71.3,59.75,63.632,42.882Zm2.322,12.9H56.444V34.86ZM28.009,4.907a11.258,11.258,0,0,1,4.537,5.082L39.464,25.8h-5.6a11.261,11.261,0,0,1-5.857-20.9ZM39.426,29.029l-6.29,13.847L25.461,59.75l-3.206-4.274a1.613,1.613,0,0,0-1.29-.645H15.511L20.8,44.264l7.609-15.235ZM9.676,14.514A11.3,11.3,0,0,1,20.965,3.225H22.2a11.2,11.2,0,0,1,1.23.073c.131.016.26.042.39.061.211.032.421.071.629.115a14.5,14.5,0,0,0,.3,22.329H20.965A11.3,11.3,0,0,1,9.676,14.514ZM3.225,41.93v-12.9H24.806l-6.451,12.9ZM40.317,93.536H8.063V45.155h8.68L11.458,55.723A1.613,1.613,0,0,0,12.9,58.057h7.257l4.354,5.806a1.613,1.613,0,0,0,1.29.645,1.57,1.57,0,0,0,.174-.01,1.613,1.613,0,0,0,1.29-.935l8.373-18.407h4.677Zm0-51.606H37.1l3.214-7.07ZM35.5,8.7a14.441,14.441,0,0,0-4.206-5.472h3.811A11.289,11.289,0,0,1,45.447,9.989l1.172,2.682L41.93,23.392ZM53.219,93.536H43.543V29.029h9.676ZM44.4,25.8,51.314,9.989A11.289,11.289,0,0,1,61.657,3.225h3.819A14.441,14.441,0,0,0,61.27,8.7L53.777,25.8ZM88.7,93.536H56.444V45.155h4.677l8.37,18.407a1.613,1.613,0,0,0,1.29.935,1.534,1.534,0,0,0,.177.01,1.613,1.613,0,0,0,1.29-.645L76.6,58.057H83.86a1.613,1.613,0,0,0,1.451-2.334L80.019,45.155H88.7ZM93.536,41.93H78.406l-6.451-12.9H93.536Z" transform="translate(21 -3)" fill="#fec335"/>
      </g>
    </g>
  </g>
</svg>
