<svg xmlns="http://www.w3.org/2000/svg" width="200" height="200" viewBox="0 0 200 200">
  <g id="Grupo_658" data-name="Grupo 658" transform="translate(-583 -3956)">
    <g id="Grupo_573" data-name="Grupo 573" transform="translate(1163 531)">
      <rect id="Retângulo_390" data-name="Retângulo 390" width="200" height="200" rx="100" transform="translate(-580 3425)" fill="#457765"/>
      <path id="Subtração_1" data-name="Subtração 1" d="M100,225a100.739,100.739,0,0,1-20.154-2.032,99.451,99.451,0,0,1-35.757-15.047,100.292,100.292,0,0,1-36.231-44,99.5,99.5,0,0,1-5.827-18.771A100.738,100.738,0,0,1,0,125,99.617,99.617,0,0,1,24.606,59.3a100.429,100.429,0,0,1,27.114-21.9A99.08,99.08,0,0,1,85.468,26.048a106.661,106.661,0,0,0-14.5,14.67A84.339,84.339,0,0,0,60.422,57.191,59.733,59.733,0,0,0,55,74.546a44.191,44.191,0,0,0,.855,17.315,51.451,51.451,0,0,0,6.1,13.994A96.867,96.867,0,0,0,72.1,119.387c7.828,8.918,17.3,17.494,27.331,26.575,11.673,10.568,23.744,21.5,33.044,33.054,8.917,11.11,15.137,22.615,19.561,31.4A99.549,99.549,0,0,1,100,225Z" transform="translate(-580 3400)" fill="#487d6a"/>
    </g>
    <g id="cake" transform="translate(634.994 4009)">
      <g id="Grupo_577" data-name="Grupo 577" transform="translate(0.006 83.861)">
        <g id="Grupo_576" data-name="Grupo 576">
          <path id="Caminho_981" data-name="Caminho 981" d="M95.153,443.737H1.619A1.612,1.612,0,0,0,.006,445.35a11.3,11.3,0,0,0,11.289,11.289H85.477A11.3,11.3,0,0,0,96.766,445.35,1.611,1.611,0,0,0,95.153,443.737Zm-9.676,9.676H11.295a8.077,8.077,0,0,1-7.9-6.451H93.378A8.076,8.076,0,0,1,85.477,453.413Z" transform="translate(-0.006 -443.737)" fill="#fec335"/>
        </g>
      </g>
      <g id="Grupo_579" data-name="Grupo 579" transform="translate(8.069 49.995)">
        <g id="Grupo_578" data-name="Grupo 578">
          <path id="Caminho_982" data-name="Caminho 982" d="M115.241,264.54H50.734a8.072,8.072,0,0,0-8.063,8.063v27.415a1.612,1.612,0,0,0,1.613,1.613h77.408a1.612,1.612,0,0,0,1.613-1.613V272.6A8.072,8.072,0,0,0,115.241,264.54Zm4.838,33.866H45.9V272.6a4.844,4.844,0,0,1,4.838-4.838h64.507a4.844,4.844,0,0,1,4.838,4.838v25.8Z" transform="translate(-42.671 -264.54)" fill="#fec335"/>
        </g>
      </g>
      <g id="Grupo_581" data-name="Grupo 581" transform="translate(22.583 20.967)">
        <g id="Grupo_580" data-name="Grupo 580">
          <path id="Caminho_983" data-name="Caminho 983" d="M163.012,110.942H127.533a8.072,8.072,0,0,0-8.063,8.063v22.577a1.612,1.612,0,0,0,1.613,1.613h48.38a1.612,1.612,0,0,0,1.613-1.613V119.005A8.072,8.072,0,0,0,163.012,110.942Zm4.838,29.028H122.7V119.005a4.844,4.844,0,0,1,4.838-4.838h35.479a4.844,4.844,0,0,1,4.838,4.838Z" transform="translate(-119.47 -110.942)" fill="#fec335"/>
        </g>
      </g>
      <g id="Grupo_583" data-name="Grupo 583" transform="translate(9.68 63.734)">
        <g id="Grupo_582" data-name="Grupo 582">
          <path id="Caminho_984" data-name="Caminho 984" d="M128.6,341.24h-.013a5.231,5.231,0,0,1-3.678-1.526s-.008-.006-.008-.01a8.462,8.462,0,0,0-11.945,0,5.273,5.273,0,0,1-7.4,0,.008.008,0,0,1,0,0,8.462,8.462,0,0,0-11.945,0,5.273,5.273,0,0,1-7.4,0s0,0,0,0a8.462,8.462,0,0,0-11.945,0,5.274,5.274,0,0,1-7.4,0l0,0a8.461,8.461,0,0,0-11.952.01,5.233,5.233,0,0,1-3.678,1.525h-.013l-.008,3.225h.021a8.472,8.472,0,0,0,5.962-2.472,5.229,5.229,0,0,1,7.389,0l.01.01a8.509,8.509,0,0,0,11.953,0,5.229,5.229,0,0,1,7.389,0l.01.01a8.507,8.507,0,0,0,11.951,0,5.231,5.231,0,0,1,7.378-.018l.037.037a8.51,8.51,0,0,0,11.935-.021,5.231,5.231,0,0,1,7.378-.018l.034.034a8.484,8.484,0,0,0,5.946,2.456l.023,0Z" transform="translate(-51.197 -337.238)" fill="#fec335"/>
        </g>
      </g>
      <g id="Grupo_585" data-name="Grupo 585" transform="translate(23.054 33.883)">
        <g id="Grupo_584" data-name="Grupo 584">
          <path id="Caminho_985" data-name="Caminho 985" d="M170.338,181.744a5.233,5.233,0,0,1-7.394-.01,8.514,8.514,0,0,0-11.958.01,5.18,5.18,0,0,1-3.691,1.529h0a5.2,5.2,0,0,1-3.7-1.539,8.506,8.506,0,0,0-11.922-.026l-.036.034a5.187,5.187,0,0,1-3.693,1.529h0a5.188,5.188,0,0,1-3.695-1.532l-2.282,2.279a8.459,8.459,0,0,0,11.924.034l.029-.027a5.27,5.27,0,0,1,7.4,0,8.4,8.4,0,0,0,5.975,2.479h0a8.4,8.4,0,0,0,5.975-2.474,5.272,5.272,0,0,1,7.4,0,8.466,8.466,0,0,0,11.956,0Z" transform="translate(-121.961 -179.283)" fill="#fec335"/>
        </g>
      </g>
      <g id="Grupo_587" data-name="Grupo 587" transform="translate(30.646 29.029)">
        <g id="Grupo_586" data-name="Grupo 586">
          <rect id="Retângulo_396" data-name="Retângulo 396" width="3.225" height="3.225" fill="#fec335"/>
        </g>
      </g>
      <g id="Grupo_589" data-name="Grupo 589" transform="translate(38.71 27.416)">
        <g id="Grupo_588" data-name="Grupo 588">
          <rect id="Retângulo_397" data-name="Retângulo 397" width="3.225" height="3.225" fill="#fec335"/>
        </g>
      </g>
      <g id="Grupo_591" data-name="Grupo 591" transform="translate(46.773 29.029)">
        <g id="Grupo_590" data-name="Grupo 590">
          <rect id="Retângulo_398" data-name="Retângulo 398" width="3.225" height="3.225" fill="#fec335"/>
        </g>
      </g>
      <g id="Grupo_593" data-name="Grupo 593" transform="translate(54.836 27.416)">
        <g id="Grupo_592" data-name="Grupo 592">
          <rect id="Retângulo_399" data-name="Retângulo 399" width="3.225" height="3.225" fill="#fec335"/>
        </g>
      </g>
      <g id="Grupo_595" data-name="Grupo 595" transform="translate(62.9 29.029)">
        <g id="Grupo_594" data-name="Grupo 594">
          <rect id="Retângulo_400" data-name="Retângulo 400" width="3.225" height="3.225" fill="#fec335"/>
        </g>
      </g>
      <g id="Grupo_597" data-name="Grupo 597" transform="translate(30.646 58.057)">
        <g id="Grupo_596" data-name="Grupo 596">
          <rect id="Retângulo_401" data-name="Retângulo 401" width="3.225" height="3.225" fill="#fec335"/>
        </g>
      </g>
      <g id="Grupo_599" data-name="Grupo 599" transform="translate(38.71 56.444)">
        <g id="Grupo_598" data-name="Grupo 598">
          <rect id="Retângulo_402" data-name="Retângulo 402" width="3.225" height="3.225" fill="#fec335"/>
        </g>
      </g>
      <g id="Grupo_601" data-name="Grupo 601" transform="translate(46.773 58.057)">
        <g id="Grupo_600" data-name="Grupo 600">
          <rect id="Retângulo_403" data-name="Retângulo 403" width="3.225" height="3.225" fill="#fec335"/>
        </g>
      </g>
      <g id="Grupo_603" data-name="Grupo 603" transform="translate(54.836 56.444)">
        <g id="Grupo_602" data-name="Grupo 602">
          <rect id="Retângulo_404" data-name="Retângulo 404" width="3.225" height="3.225" fill="#fec335"/>
        </g>
      </g>
      <g id="Grupo_605" data-name="Grupo 605" transform="translate(62.9 58.057)">
        <g id="Grupo_604" data-name="Grupo 604">
          <rect id="Retângulo_405" data-name="Retângulo 405" width="3.225" height="3.225" fill="#fec335"/>
        </g>
      </g>
      <g id="Grupo_607" data-name="Grupo 607" transform="translate(14.52 58.057)">
        <g id="Grupo_606" data-name="Grupo 606">
          <rect id="Retângulo_406" data-name="Retângulo 406" width="3.225" height="3.225" fill="#fec335"/>
        </g>
      </g>
      <g id="Grupo_609" data-name="Grupo 609" transform="translate(22.583 56.444)">
        <g id="Grupo_608" data-name="Grupo 608">
          <rect id="Retângulo_407" data-name="Retângulo 407" width="3.225" height="3.225" fill="#fec335"/>
        </g>
      </g>
      <g id="Grupo_611" data-name="Grupo 611" transform="translate(70.963 56.444)">
        <g id="Grupo_610" data-name="Grupo 610">
          <rect id="Retângulo_408" data-name="Retângulo 408" width="3.225" height="3.225" fill="#fec335"/>
        </g>
      </g>
      <g id="Grupo_613" data-name="Grupo 613" transform="translate(79.026 58.057)">
        <g id="Grupo_612" data-name="Grupo 612">
          <rect id="Retângulo_409" data-name="Retângulo 409" width="3.225" height="3.225" fill="#fec335"/>
        </g>
      </g>
      <g id="Grupo_615" data-name="Grupo 615" transform="translate(43.548 11.291)">
        <g id="Grupo_614" data-name="Grupo 614">
          <path id="Caminho_986" data-name="Caminho 986" d="M238.464,59.743h-6.451a1.613,1.613,0,0,0-1.613,1.613v9.676a1.613,1.613,0,0,0,1.613,1.613h6.451a1.612,1.612,0,0,0,1.613-1.613V61.356A1.612,1.612,0,0,0,238.464,59.743Zm-1.613,9.676h-3.225V62.968h3.225Z" transform="translate(-230.401 -59.743)" fill="#fec335"/>
        </g>
      </g>
      <g id="Grupo_617" data-name="Grupo 617" transform="translate(44.038 0)">
        <g id="Grupo_616" data-name="Grupo 616" transform="translate(0 0)">
          <path id="Caminho_987" data-name="Caminho 987" d="M241.479,4.7a7.2,7.2,0,0,0-3.3-4.465,1.606,1.606,0,0,0-1.66,0,7.258,7.258,0,0,0,0,12.442,1.611,1.611,0,0,0,1.661,0,7.257,7.257,0,0,0,3.3-7.976ZM237.892,8.53a4.038,4.038,0,0,1-.55.718,4.033,4.033,0,0,1,0-5.589,4.038,4.038,0,0,1,.547,4.872Z" transform="translate(-232.996 0)" fill="#fec335"/>
        </g>
      </g>
      <g id="Grupo_619" data-name="Grupo 619" transform="translate(30.646 11.291)">
        <g id="Grupo_618" data-name="Grupo 618">
          <path id="Caminho_988" data-name="Caminho 988" d="M170.2,59.743h-6.451a1.613,1.613,0,0,0-1.613,1.613v9.676a1.613,1.613,0,0,0,1.613,1.613H170.2a1.612,1.612,0,0,0,1.613-1.613V61.356A1.613,1.613,0,0,0,170.2,59.743Zm-1.613,9.676h-3.225V62.968h3.225Z" transform="translate(-162.136 -59.743)" fill="#fec335"/>
        </g>
      </g>
      <g id="Grupo_621" data-name="Grupo 621" transform="translate(31.137 0.002)">
        <g id="Grupo_620" data-name="Grupo 620" transform="translate(0 0)">
          <path id="Caminho_989" data-name="Caminho 989" d="M169.911.236a1.616,1.616,0,0,0-1.661,0,7.258,7.258,0,0,0,0,12.442,1.611,1.611,0,0,0,1.661,0,7.258,7.258,0,0,0,0-12.442Zm-.284,8.3a3.951,3.951,0,0,1-.55.718,4.033,4.033,0,0,1,0-5.589,4.038,4.038,0,0,1,.547,4.872Z" transform="translate(-164.731 -0.006)" fill="#fec335"/>
        </g>
      </g>
      <g id="Grupo_623" data-name="Grupo 623" transform="translate(56.449 11.291)">
        <g id="Grupo_622" data-name="Grupo 622">
          <path id="Caminho_990" data-name="Caminho 990" d="M306.73,59.743H300.28a1.612,1.612,0,0,0-1.613,1.613v9.676a1.612,1.612,0,0,0,1.613,1.613h6.451a1.612,1.612,0,0,0,1.613-1.613V61.356A1.612,1.612,0,0,0,306.73,59.743Zm-1.613,9.676h-3.225V62.968h3.225Z" transform="translate(-298.667 -59.743)" fill="#fec335"/>
        </g>
      </g>
      <g id="Grupo_625" data-name="Grupo 625" transform="translate(56.934 0.002)">
        <g id="Grupo_624" data-name="Grupo 624">
          <path id="Caminho_991" data-name="Caminho 991" d="M309.717,4.7a7.2,7.2,0,0,0-3.3-4.465,1.616,1.616,0,0,0-1.659,0,7.257,7.257,0,0,0,0,12.442,1.608,1.608,0,0,0,1.66,0,7.257,7.257,0,0,0,3.3-7.976Zm-3.585,3.833a4.031,4.031,0,0,1-.55.718,4.033,4.033,0,0,1,0-5.589,4.038,4.038,0,0,1,.547,4.872Z" transform="translate(-301.231 -0.01)" fill="#fec335"/>
        </g>
      </g>
    </g>
  </g>
</svg>
