<svg xmlns="http://www.w3.org/2000/svg" width="25" height="24.994" viewBox="0 0 25 24.994">
  <path id="instagram-brands" d="M12.428,37.914a6.408,6.408,0,1,0,6.408,6.408A6.4,6.4,0,0,0,12.428,37.914Zm0,10.574a4.166,4.166,0,1,1,4.166-4.166,4.174,4.174,0,0,1-4.166,4.166Zm8.165-10.837A1.495,1.495,0,1,1,19.1,36.157,1.491,1.491,0,0,1,20.593,37.652Zm4.244,1.517a7.4,7.4,0,0,0-2.019-5.237,7.446,7.446,0,0,0-5.237-2.019c-2.064-.117-8.249-.117-10.312,0a7.435,7.435,0,0,0-5.237,2.013A7.421,7.421,0,0,0,.013,39.163C-.1,41.227-.1,47.412.013,49.476a7.4,7.4,0,0,0,2.019,5.237,7.455,7.455,0,0,0,5.237,2.019c2.064.117,8.249.117,10.312,0a7.4,7.4,0,0,0,5.237-2.019,7.446,7.446,0,0,0,2.019-5.237C24.954,47.412,24.954,41.232,24.837,39.169ZM22.171,51.69A4.218,4.218,0,0,1,19.8,54.066c-1.645.653-5.549.5-7.368.5s-5.728.145-7.368-.5A4.218,4.218,0,0,1,2.684,51.69c-.653-1.645-.5-5.549-.5-7.368s-.145-5.728.5-7.368A4.218,4.218,0,0,1,5.06,34.579c1.645-.653,5.549-.5,7.368-.5s5.728-.145,7.368.5a4.218,4.218,0,0,1,2.376,2.376c.653,1.645.5,5.549.5,7.368S22.824,50.05,22.171,51.69Z" transform="translate(0.075 -31.825)" opacity="0.3"/>
</svg>
