<svg xmlns="http://www.w3.org/2000/svg" width="25.35" height="25.35" viewBox="0 0 25.35 25.35">
  <path id="linkedin-brands" d="M23.539,32H1.805A1.819,1.819,0,0,0,0,33.828V55.522A1.819,1.819,0,0,0,1.805,57.35H23.539a1.823,1.823,0,0,0,1.811-1.828V33.828A1.823,1.823,0,0,0,23.539,32ZM7.661,53.728H3.9v-12.1H7.667v12.1ZM5.783,39.978A2.178,2.178,0,1,1,7.961,37.8,2.179,2.179,0,0,1,5.783,39.978Zm15.962,13.75H17.988V47.844c0-1.4-.028-3.208-1.952-3.208-1.958,0-2.258,1.528-2.258,3.106v5.987H10.021v-12.1h3.6v1.652h.051a3.957,3.957,0,0,1,3.559-1.952c3.8,0,4.51,2.507,4.51,5.766Z" transform="translate(0 -32)" opacity="0.3"/>
</svg>
