<svg xmlns="http://www.w3.org/2000/svg" width="200.176" height="28.666" viewBox="0 0 200.176 28.666">
  <g id="Grupo_527" data-name="Grupo 527" transform="translate(0)">
    <g id="Grupo_359" data-name="Grupo 359" transform="translate(42.94 1.883)">
      <path id="Caminho_847" data-name="Caminho 847" d="M27.747-58.6a12.418,12.418,0,0,0-8.757-4.377c-7.421,0-13.358,5.169-13.358,12.9S11.569-37.515,18.99-37.515A14.188,14.188,0,0,0,24.73-39.2a13.6,13.6,0,0,0,3.113-2.622l-3.088-3.267c-1.126,1.484-3.871,2.384-5.765,2.384a7.11,7.11,0,0,1-7.216-7.37,7.11,7.11,0,0,1,7.216-7.37,8.56,8.56,0,0,1,5.449,2.473Z" transform="translate(56.948 63.71)" fill="#acacac"/>
      <path id="Caminho_842" data-name="Caminho 842" d="M21.96-37.8l5.641,0,.022-14.219c0-3.449,0-10.956-10.549-10.956-2.479,0-8.683,1.094-9.681,2.1l1.455,4.961c1.647-1.522,4.916-1.674,7.489-1.674a7.16,7.16,0,0,1,4.548,1.674c.626.5.693.867.693,2.106v.626H20.521c-3.075,0-7.032-.477-10.185.672a7.829,7.829,0,0,0-5.1,7.77c0,4.819,4.175,7.333,8.755,7.333,3.293,0,6.023-.494,7.772-3.233h.2Zm.065-9.771c0,3.4-2.327,5.591-6.546,5.591-2.007,0-4.322-.964-4.322-3.2,0-3.5,5.374-3.46,8.77-3.46h2.1Z" transform="translate(82.759 63.59)" fill="#acacac"/>
      <path id="Caminho_843" data-name="Caminho 843" d="M8.7-38.189h5.637V-51.137c0-1.31.752-6.1,6.06-6.1a10.6,10.6,0,0,1,2.725.453v-5.844a6.823,6.823,0,0,0-2.02-.353,7.153,7.153,0,0,0-6.671,4.433h-.094v-3.829H8.7Z" transform="translate(107.675 63.984)" fill="#acacac"/>
      <path id="Caminho_846" data-name="Caminho 846" d="M31.719-47.929v-1.689c0-8.547-4.657-13.358-11.515-13.358-7.421,0-12.549,5.167-12.549,12.895s5.128,12.9,12.549,12.9a12.793,12.793,0,0,0,10.389-4.913l-4.4-3.327a8.076,8.076,0,0,1-6.6,3.327c-3.429,0-5.488-2.2-5.9-5.834ZM13.692-52.535c.461-3.531,1.974-5.374,5.608-5.374,3.838,0,6.227,1.792,6.278,5.374Z" transform="translate(125.517 62.976)" fill="#acacac"/>
      <path id="Caminho_849" data-name="Caminho 849" d="M9.414-35.769h3.2l6.654-19.5h.1l7.118,19.5h3.2L36.7-59.6H33.6L27.982-39.637h-.1L20.813-59.6h-2.94L11.219-39.637h-.1L5.339-59.6h-3.4Z" transform="translate(-1.935 60.763)" fill="#acacac"/>
      <path id="Caminho_848" data-name="Caminho 848" d="M26.122-43.093a9.006,9.006,0,0,1-7.613,4.229c-6.876,0-8.6-6.4-8.6-8.975H28.971V-50c0-5.519-3.684-11.141-10.659-11.141-6.631,0-11.346,5.364-11.346,12.482,0,7.376,4.568,12.585,11.494,12.585a10.972,10.972,0,0,0,9.824-5.106ZM9.913-50.624c0-1.238,1.817-7.737,8.252-7.737a7.807,7.807,0,0,1,7.859,7.737Z" transform="translate(28.632 61.692)" fill="#acacac"/>
    </g>
    <path id="path1" d="M25.541,2.878c-.009,0-.113.015-.231.024a7.13,7.13,0,0,0-1.122.163c-.245.058-.558.139-.645.166a8.49,8.49,0,0,0-1.258.513l-.222.119c-.065.035-.126.07-.135.077a.792.792,0,0,1-.073.046,8.649,8.649,0,0,0-1.161.84,10.244,10.244,0,0,0-1,1.007c-.053.062-.1.117-.1.121s-.061.074-.125.154l-.142.179c-.023.028-.12.16-.211.284l-.094.129a.66.66,0,0,0-.064.1.126.126,0,0,1-.028.042,2.562,2.562,0,0,0-.188.291l-.074.13c-.057.1-.378.774-.378.8a.856.856,0,0,1-.04.1.613.613,0,0,0-.04.1A.132.132,0,0,1,18.2,8.3a3.6,3.6,0,0,0-.154.426c-.023.076-.055.178-.07.227-.043.133-.09.3-.118.422-.073.31-.091.4-.121.552-.041.216-.059.32-.079.463l-.031.219a14.354,14.354,0,0,0,0,2.585l.032.227c.03.215.095.572.143.791.007.031.021.1.031.154s.03.138.043.187l.055.211c.057.221.052.2.171.584.035.112.086.265.114.341s.06.167.071.2c.024.077.108.292.158.406.02.045.045.107.057.138s.042.1.068.162l.1.219c.054.124.383.791.439.889s.095.17.156.284c.033.06.085.152.116.2s.089.148.128.216a20.926,20.926,0,0,0,1.216,1.769l.14.179c.055.071.1.133.109.138s.025.03.045.057.059.074.087.106.086.1.13.154.083.1.088.105l.1.122c.052.062.125.146.162.187s.082.091.1.114c.287.341,1.275,1.344,1.783,1.811.048.044.1.091.111.1s.053.049.088.079.1.089.145.13.116.105.159.142l.11.1c.018.016.075.066.127.111s.1.085.1.09.044.038.087.073l.088.072c.015.015.2.171.279.235a3.943,3.943,0,0,1,.318.284c.166.159.3.286.477.446l.142.13c.055.051.168.152.209.187.072.062.268.234.277.243l.088.073c.044.035.083.069.088.075s.234.2.422.353c.061.05.119.1.129.108s.045.039.079.066l.222.179c.2.164.222.178.5.4l.247.192.143.109c.16.12.294.223.326.248.013.011.11.082.215.158l.207.151c.009.007.052.038.1.068a.831.831,0,0,1,.088.066.814.814,0,0,0,.09.066c.045.03.181.125.3.211s.339.237.484.336.27.187.28.195a.412.412,0,0,0,.056.035.216.216,0,0,1,.047.031,1.52,1.52,0,0,0,.127.086c.066.042.127.082.135.09.026.022.235.159.278.182a.416.416,0,0,1,.056.035c.045.039.707.459.98.622l.34.209c.139.086.256.156.26.156a.231.231,0,0,1,.05.03c.023.017.075.048.114.071l.127.073c.128.075.62.36.7.4l.149.085.2.11c.076.041.145.08.154.087s.113.063.231.126l.39.209c.1.052.252.134.345.182l.17.087.132-.069c.314-.163,1.057-.565,1.342-.727l.231-.13.151-.086.255-.149.366-.215.215-.126c.031-.018.075-.046.1-.063a.228.228,0,0,1,.05-.031c.012,0,.657-.4,1.054-.652.213-.136.762-.5,1.09-.722l.366-.249c.083-.056.155-.107.159-.113s.069-.052.143-.1c.281-.194,1.065-.766,1.2-.876l.119-.089c.057-.042.107-.08.111-.085s.065-.052.135-.106l.151-.116.135-.1.135-.105.192-.154c.092-.074.175-.142.185-.151s.038-.032.063-.05.07-.055.1-.082.11-.092.176-.145.123-.1.127-.105.044-.038.088-.074l.087-.072.1-.089.1-.089.111-.1.122-.106.174-.154c.086-.076.2-.182.261-.235l.246-.227c.078-.071.167-.157.2-.189.062-.064.273-.25.431-.379l.117-.1.113-.1.1-.089.1-.09c.11-.093.126-.107.318-.277.127-.111.366-.329.463-.421l.191-.179c.511-.476,1.365-1.359,1.735-1.794l.07-.081.1-.122c.052-.063.1-.121.112-.13s.049-.056.087-.106.074-.093.079-.1.037-.044.072-.089c.062-.079.126-.157.159-.193.009-.01.038-.047.063-.083.045-.063.166-.219.183-.235s.263-.356.4-.544c.073-.1.342-.5.468-.7l.123-.19a.185.185,0,0,0,.029-.06.024.024,0,0,1,.012-.021c.011,0,.168-.265.258-.427l.074-.13c.026-.045.082-.147.124-.227l.108-.2c.04-.073.251-.5.307-.626.115-.252.134-.3.163-.365.017-.04.051-.124.076-.187a1,1,0,0,1,.058-.129A.066.066,0,0,0,51.8,16.2a.385.385,0,0,1,.03-.09c.039-.089.08-.2.106-.28.011-.036.043-.127.071-.2.045-.124.08-.231.167-.519.015-.049.033-.111.04-.138l.039-.146c.054-.2.106-.409.127-.511a11.817,11.817,0,0,0,.215-1.307,12.817,12.817,0,0,0-.008-2.271c-.03-.251-.071-.538-.092-.643l-.027-.138c-.03-.157-.049-.246-.12-.552-.023-.1-.047-.2-.055-.219s-.037-.117-.064-.211a6.018,6.018,0,0,0-.224-.661.385.385,0,0,1-.03-.09.065.065,0,0,0-.013-.037.534.534,0,0,1-.042-.1c-.052-.144-.308-.688-.39-.828-.026-.045-.063-.11-.081-.146-.032-.062-.264-.413-.283-.43s-.055-.071-.188-.258a11.069,11.069,0,0,0-1.293-1.439c-.039-.035-.082-.075-.1-.089s-.121-.1-.239-.2c-.262-.213-.25-.2-.318-.252a.528.528,0,0,1-.064-.05,1.5,1.5,0,0,0-.126-.088,1.483,1.483,0,0,1-.141-.1.074.074,0,0,0-.036-.023.07.07,0,0,1-.035-.021,8.643,8.643,0,0,0-1.151-.629s-.048-.019-.1-.043-.11-.049-.132-.056-.09-.032-.151-.056a8.269,8.269,0,0,0-1.011-.3l-.207-.044a8.254,8.254,0,0,0-.939-.135c-.266-.027-1.527-.027-1.807,0l-.382.036c-.1.009-.229.024-.294.034-.279.041-.464.071-.581.1l-.151.032c-.1.021-.145.031-.4.09-.1.023-.2.048-.223.056l-.111.034-.159.049-.183.057c-.127.037-.288.092-.454.154l-.223.081c-.048.017-.19.075-.316.129s-.23.1-.233.1c-.025,0-.908.441-1.083.541l-.175.1c-.044.025-.125.074-.181.108s-.1.062-.106.062-.579.37-.773.507l-.221.157c-.055.039-.112.081-.126.092l-.205.161c-.176.137-.238.187-.289.235-.014.013-.061.053-.1.089a11.529,11.529,0,0,0-.952.937l-.109.125-.081-.092A11.5,11.5,0,0,0,33.733,5.65l-.195-.157c-.015-.013-.047-.036-.072-.052S33.41,5.4,33.4,5.392c-.077-.062-.183-.139-.242-.177a.5.5,0,0,1-.076-.056c-.01-.015-.483-.33-.613-.408l-.2-.122c-.057-.035-.15-.09-.207-.121s-.136-.076-.175-.1c-.171-.1-1-.513-1.207-.6-.067-.027-.154-.064-.194-.083-.075-.035-.25-.1-.318-.127l-.175-.064c-.158-.06-.32-.115-.454-.155-.187-.056-.3-.092-.342-.105s-.466-.119-.6-.147L28.454,3.1,28.3,3.067l-.167-.033c-.044-.008-.133-.023-.2-.033l-.231-.034c-.1-.015-.243-.03-.653-.067-.165-.015-1.484-.035-1.512-.023m1.138,2.006c.109.01.278.028.374.041l.3.039c.07.009.16.023.2.031l.175.033c.147.026.189.036.613.138.289.069.279.067.748.212.207.064.261.083.525.186.4.156.395.154.572.235l.207.093c.1.045.565.285.675.351a.874.874,0,0,0,.09.05s.084.049.178.108.2.127.243.149a.508.508,0,0,1,.08.052c0,.006.076.056.159.112s.169.114.191.131l.127.1.1.079.072.053a.674.674,0,0,1,.064.049c0,.005.044.038.087.074l.1.081.174.153A10.573,10.573,0,0,1,33.8,8.523l.06.076-.056.089a.5.5,0,0,0-.056.106.016.016,0,0,1-.016.017.017.017,0,0,0-.016.017.319.319,0,0,1-.046.085c-.025.037-.06.093-.078.125L33.5,9.2l-.091.162c-.017.031-.037.064-.043.073s-.042.075-.08.146-.088.166-.113.211c-.174.316-.5.972-.72,1.469-.067.149-.226.527-.276.657-.031.08-.065.168-.077.195-.046.108-.143.366-.191.511-.1.306-.2.594-.223.69-.015.054-.037.128-.049.166s-.036.125-.055.195l-.055.209a11.918,11.918,0,0,0-.248,1.427,9.307,9.307,0,0,0,0,1.169l.035.243a3.242,3.242,0,0,0,.071.357,3.46,3.46,0,0,0,2.658,2.57,3.678,3.678,0,0,0,2.213-.028,4.488,4.488,0,0,0,1.377-.682s.047-.039.1-.077a3.621,3.621,0,0,0,.557-.6.121.121,0,0,1,.028-.043,3.477,3.477,0,0,0,.528-1.281c.011-.054.026-.127.033-.162a7.681,7.681,0,0,0,.035-1.55c-.044-.332-.067-.484-.114-.747s-.147-.687-.242-1.015c-.071-.245-.295-.935-.332-1.023-.007-.018-.051-.131-.1-.252-.081-.213-.1-.268-.149-.377l-.1-.231c-.041-.1-.1-.233-.13-.3l-.106-.235c-.06-.136-.548-1.126-.6-1.213-.071-.125-.1-.185-.158-.288-.031-.058-.083-.152-.117-.209s-.061-.106-.061-.109-.048-.085-.106-.181-.128-.215-.156-.264-.063-.109-.079-.133a.078.078,0,0,1-.016-.065,2.245,2.245,0,0,1,.158-.2l.117-.13c.131-.148.3-.323.482-.5.159-.155.216-.208.389-.36l.12-.105c.023-.021.062-.052.087-.07s.066-.051.093-.074.092-.074.144-.114.1-.077.1-.083a11.567,11.567,0,0,1,1.719-1.035l.215-.1c.1-.048.315-.135.589-.242.251-.1.312-.12.525-.187l.215-.068.076-.023.1-.029c.146-.041.671-.172.744-.185l.167-.034c.187-.039.287-.056.43-.076l.239-.033a5.608,5.608,0,0,1,1.672-.014,7.57,7.57,0,0,1,.907.161c.1.023.173.042.247.063l.143.041a7.111,7.111,0,0,1,.812.3c.078.035.428.212.486.245a5.332,5.332,0,0,1,.724.49s.044.038.088.073a4.369,4.369,0,0,1,.366.34,6.03,6.03,0,0,1,1.459,2.557c.073.243.132.467.155.584.009.049.028.144.041.211s.032.166.041.219.023.13.03.17.021.139.031.219.025.194.033.252a15.247,15.247,0,0,1,0,2.613c-.052.444-.1.761-.127.925-.008.04-.026.139-.04.219-.03.171-.055.292-.072.349-.007.022-.02.07-.03.106-.051.187-.194.618-.249.747l-.071.17-.075.179c-.038.089-.266.553-.307.625-.02.036-.062.112-.093.17s-.069.125-.085.149a.172.172,0,0,0-.029.061.017.017,0,0,1-.016.018.015.015,0,0,0-.016.015c0,.013-.135.238-.233.389l-.054.083-.261.39c-.041.061-.143.2-.333.462-.019.026-.053.07-.075.1s-.07.09-.106.139-.079.1-.1.122-.058.07-.093.116c-.061.08-.386.476-.4.493s-.124.14-.264.3c-.5.571-1.463,1.561-2,2.055-.043.04-.1.094-.129.121s-.1.093-.159.146l-.126.114-.145.129-.208.187c-.044.04-.1.092-.128.114-.066.056-.268.233-.278.243l-.1.089c-.053.045-.1.085-.1.09s-.044.038-.088.073-.087.072-.1.081l-.095.081-.174.147c-.053.045-.15.125-.216.179s-.123.1-.127.106-.833.672-.963.77c-.07.053-.131.1-.135.1s-.065.052-.135.106-.131.1-.135.106a.785.785,0,0,1-.064.048.676.676,0,0,0-.064.048c0,.005-.076.06-.159.122l-.167.126-.119.089c-.057.042-.107.08-.111.085s-.058.045-.119.089-.115.084-.119.09-.079.061-.165.123c-.278.2-.4.291-.442.321-.055.042-.45.326-.571.41-.187.129-.31.217-.326.231s-.1.072-.207.143-.195.133-.2.138-.262.181-.573.391c-.485.328-.7.471-.987.656-.452.292-.609.393-.756.486l-.323.206a1.27,1.27,0,0,1-.163.1.016.016,0,0,0-.015.016.016.016,0,0,1-.016.016.744.744,0,0,0-.128.073,1.141,1.141,0,0,1-.121.073.486.486,0,0,0-.078.049.33.33,0,0,1-.086.049.017.017,0,0,0-.017.016.016.016,0,0,1-.016.016,2.067,2.067,0,0,0-.217.123l-.2.122-.138-.084-.191-.115c-.108-.062-.646-.4-1.021-.633-.577-.365-1.519-.988-2.158-1.425-.533-.365-1.124-.779-1.177-.824-.026-.022-.371-.267-.46-.327a.865.865,0,0,1-.09-.065c-.008-.011-.152-.119-.217-.164s-.3-.218-.319-.234-.063-.05-.119-.09c-.081-.059-.4-.3-.468-.353l-.247-.19-.279-.215-.064-.05c-.112-.087-.355-.281-.573-.457-.149-.12-.3-.244-.342-.275s-.075-.06-.08-.066-.044-.039-.087-.075l-.1-.081c-.021-.019-.047-.04-.157-.13-.044-.036-.122-.1-.175-.146l-.111-.094c-.034-.025-.1-.081-.152-.131-.031-.029-.077-.069-.1-.089s-.073-.061-.1-.089-.1-.088-.151-.133l-.1-.089-.119-.105c-.061-.053-.122-.108-.135-.122s-.074-.068-.135-.122-.15-.134-.2-.18l-.3-.276c-.46-.43-1.363-1.339-1.711-1.722-.254-.28-.25-.275-.374-.419l-.12-.138-.1-.122-.1-.122-.087-.106c-.044-.054-.083-.1-.088-.105s-.037-.045-.072-.089l-.079-.1c-.025-.029-.056-.069-.175-.225l-.131-.17c-.011-.013-.067-.09-.125-.17l-.135-.187c-.09-.124-.451-.665-.46-.689a.067.067,0,0,0-.017-.025.565.565,0,0,1-.051-.081c-.022-.04-.081-.14-.13-.222s-.09-.152-.09-.157a1.127,1.127,0,0,0-.062-.113c-.074-.124-.329-.641-.391-.792-.024-.058-.056-.135-.072-.171-.067-.15-.239-.647-.287-.827l-.03-.114c-.018-.07-.1-.5-.127-.641a12.884,12.884,0,0,1-.176-2.217,9.977,9.977,0,0,1,.224-2.279c.061-.283.08-.365.093-.406.007-.022.029-.1.048-.162a4.723,4.723,0,0,1,.193-.572.132.132,0,0,0,.014-.044.754.754,0,0,1,.045-.118c.025-.056.055-.127.068-.157a6.445,6.445,0,0,1,.817-1.361l.072-.085a5.832,5.832,0,0,1,.683-.674c.055-.045.108-.089.119-.1s.061-.048.317-.222c.1-.069.19-.126.2-.126a.208.208,0,0,0,.054-.032,7.028,7.028,0,0,1,1.943-.736l.159-.033a9.306,9.306,0,0,1,1.106-.138,4.454,4.454,0,0,1,.693.015m8.466,5.895c.036.07.064.121.125.223.019.031.064.115.1.187s.073.137.08.146.066.122.131.252l.153.3c.041.079.273.577.273.585s.025.063.056.132l.07.16.039.091c.029.067.118.3.188.493.044.122.138.413.2.633.025.085.06.223.113.454.008.036.023.112.032.17l.033.2a6.54,6.54,0,0,1,.015.958,1.778,1.778,0,0,1-.683,1.253.619.619,0,0,0-.1.074.022.022,0,0,1-.019.012.5.5,0,0,0-.1.05,2.6,2.6,0,0,1-.484.179,1.7,1.7,0,0,1-1.652-.728,2.25,2.25,0,0,1-.314-1.24,4.33,4.33,0,0,1,.089-.85,8.542,8.542,0,0,1,.26-.974c.157-.439.242-.655.394-1l.064-.146c.1-.229.428-.887.564-1.136l.108-.2c.038-.071.082-.149.1-.173a.213.213,0,0,0,.029-.053.439.439,0,0,1,.08-.123.233.233,0,0,1,.044.069" transform="translate(-17.564 -2.875)" fill="#acacac" fill-rule="evenodd"/>
  </g>
</svg>
