<svg xmlns="http://www.w3.org/2000/svg" width="168" height="24.058" viewBox="0 0 168 24.058">
  <g id="Grupo_510" data-name="Grupo 510" transform="translate(0 0)">
    <g id="Grupo_359" data-name="Grupo 359" transform="translate(36.038 1.58)">
      <path id="Caminho_847" data-name="Caminho 847" d="M24.192-59.3a10.422,10.422,0,0,0-7.35-3.674c-6.228,0-11.211,4.338-11.211,10.824s4.983,10.544,11.211,10.544a11.908,11.908,0,0,0,4.817-1.417,11.412,11.412,0,0,0,2.613-2.2l-2.592-2.742c-.945,1.246-3.249,2-4.838,2a5.967,5.967,0,0,1-6.056-6.185,5.967,5.967,0,0,1,6.056-6.185,7.184,7.184,0,0,1,4.573,2.076Z" transform="translate(46.889 63.592)" fill="#22b393"/>
      <path id="Caminho_842" data-name="Caminho 842" d="M19.271-41.844l4.734,0,.018-11.933c0-2.895,0-9.2-8.853-9.2-2.081,0-7.288.918-8.125,1.76l1.221,4.164c1.382-1.277,4.126-1.4,6.285-1.4a6.009,6.009,0,0,1,3.817,1.4c.526.417.582.728.582,1.767v.525h-.886c-2.581,0-5.9-.4-8.548.564a6.57,6.57,0,0,0-4.284,6.521c0,4.044,3.5,6.154,7.348,6.154,2.764,0,5.055-.415,6.523-2.714h.169Zm.054-8.2c0,2.852-1.953,4.692-5.494,4.692-1.684,0-3.628-.809-3.628-2.682,0-2.937,4.51-2.9,7.361-2.9h1.761Z" transform="translate(68.615 63.491)" fill="#22b393"/>
      <path id="Caminho_843" data-name="Caminho 843" d="M8.7-42.174h4.731V-53.04c0-1.1.631-5.116,5.086-5.116a8.9,8.9,0,0,1,2.287.381v-4.9a5.726,5.726,0,0,0-1.7-.3,6,6,0,0,0-5.6,3.721h-.079v-3.213H8.7Z" transform="translate(88.968 63.822)" fill="#22b393"/>
      <path id="Caminho_846" data-name="Caminho 846" d="M27.851-50.348v-1.417c0-7.173-3.909-11.211-9.664-11.211-6.228,0-10.532,4.336-10.532,10.822s4.3,10.826,10.532,10.826a10.737,10.737,0,0,0,8.719-4.123l-3.694-2.792a6.778,6.778,0,0,1-5.541,2.792c-2.878,0-4.606-1.847-4.95-4.9ZM12.722-54.214c.387-2.964,1.657-4.511,4.706-4.511,3.221,0,5.226,1.5,5.269,4.511Z" transform="translate(104.111 62.976)" fill="#22b393"/>
      <path id="Caminho_849" data-name="Caminho 849" d="M8.212-39.6H10.9L16.48-55.962h.087L22.54-39.6h2.684l5.887-20h-2.6L23.8-42.845h-.087L17.779-59.6H15.311L9.727-42.845H9.64L4.792-59.6H1.935Z" transform="translate(-1.935 60.576)" fill="#2c3e51"/>
      <path id="Caminho_848" data-name="Caminho 848" d="M23.043-46a7.558,7.558,0,0,1-6.389,3.55c-5.771,0-7.214-5.368-7.214-7.532H25.434V-51.8c0-4.632-3.092-9.35-8.945-9.35-5.565,0-9.522,4.5-9.522,10.476,0,6.19,3.834,10.562,9.646,10.562a9.209,9.209,0,0,0,8.244-4.286Zm-13.6-6.32c0-1.039,1.525-6.493,6.925-6.493a6.552,6.552,0,0,1,6.6,6.493Z" transform="translate(22.91 61.605)" fill="#2c3e51"/>
    </g>
    <path id="path1" d="M24.259,2.878c-.007,0-.095.012-.194.02a5.984,5.984,0,0,0-.942.137c-.206.049-.468.116-.541.139a7.125,7.125,0,0,0-1.056.431l-.186.1c-.055.029-.106.058-.114.065a.665.665,0,0,1-.061.039,7.259,7.259,0,0,0-.975.7,8.6,8.6,0,0,0-.836.845l-.087.1s-.051.062-.1.129l-.119.15c-.019.024-.1.134-.177.238l-.079.108a.553.553,0,0,0-.054.083.106.106,0,0,1-.024.035,2.15,2.15,0,0,0-.158.244l-.062.109c-.048.083-.317.65-.317.668a.719.719,0,0,1-.033.082.514.514,0,0,0-.033.088.111.111,0,0,1-.012.037,3.021,3.021,0,0,0-.129.357c-.019.064-.046.149-.059.191-.036.112-.076.255-.1.354-.061.26-.077.332-.1.463-.035.181-.05.269-.067.388l-.026.184a12.046,12.046,0,0,0,0,2.169l.027.191c.025.18.08.48.12.664.006.026.018.085.026.129s.025.115.036.157l.046.177c.048.185.044.171.143.49.029.094.072.222.1.286s.05.14.06.17c.021.065.091.245.132.341.016.037.038.09.048.116s.035.087.057.136l.081.184c.046.1.322.664.368.746s.08.142.131.238c.027.051.071.127.1.17s.075.124.108.182a17.562,17.562,0,0,0,1.02,1.485l.117.15c.046.06.088.112.092.116s.021.025.038.048.05.062.073.089.072.085.109.129l.074.088.087.1c.044.052.105.123.136.157l.085.1c.24.286,1.07,1.128,1.5,1.52l.093.088c.011.011.044.041.074.067l.122.109c.037.034.1.088.134.119l.092.082c.015.014.063.056.107.093l.087.075s.037.032.073.062l.074.061c.013.013.167.143.234.2a3.309,3.309,0,0,1,.267.238c.14.134.253.24.4.375l.12.109c.046.043.141.127.176.157.06.052.225.2.233.2l.074.061c.037.03.07.058.074.063s.2.168.354.3l.108.091.066.055.187.15c.171.138.186.15.42.332l.207.162.12.091c.134.1.247.187.274.208l.181.132.174.127.08.057a.7.7,0,0,1,.074.056.684.684,0,0,0,.075.055l.254.177c.1.072.285.2.406.282s.227.157.235.163a.346.346,0,0,0,.047.03.181.181,0,0,1,.039.026,1.276,1.276,0,0,0,.107.073c.055.035.106.069.114.075s.2.134.233.153a.349.349,0,0,1,.047.03c.038.032.594.385.822.522l.285.175c.116.072.215.131.218.131a.194.194,0,0,1,.042.025c.019.014.063.041.1.059l.107.062c.108.063.52.3.588.34l.125.071.167.092c.064.034.122.067.129.073s.095.053.194.106l.327.175c.081.044.211.112.29.152l.143.073.111-.058c.263-.137.887-.474,1.127-.61l.194-.109.127-.072.214-.125.307-.18.18-.106c.026-.015.063-.039.082-.053a.191.191,0,0,1,.042-.026c.01,0,.551-.335.884-.547.179-.114.639-.419.915-.606l.307-.209c.07-.047.13-.09.134-.095s.058-.044.12-.087c.236-.163.894-.643,1.009-.735l.1-.075c.048-.035.09-.067.093-.071s.055-.044.113-.089l.127-.1.113-.088.114-.088.161-.13c.077-.062.147-.119.156-.127s.032-.027.053-.042.059-.046.085-.069.092-.078.147-.122.1-.084.107-.089.037-.032.074-.062l.073-.061.087-.075.087-.075.094-.082.1-.089.146-.13c.072-.064.171-.153.219-.2l.207-.191c.065-.06.14-.131.166-.159.052-.054.229-.21.362-.318l.1-.082.1-.081.087-.075.087-.075c.092-.078.105-.09.267-.232.106-.093.307-.276.389-.354l.16-.15c.429-.4,1.145-1.14,1.456-1.505l.059-.068.087-.1c.044-.052.086-.1.094-.109s.041-.047.073-.089.062-.078.066-.082.031-.037.06-.075c.052-.066.106-.132.134-.162.008-.008.032-.04.053-.07.038-.053.14-.184.153-.2s.221-.3.335-.456c.061-.084.287-.421.393-.586l.1-.16a.156.156,0,0,0,.024-.05.02.02,0,0,1,.01-.018c.009,0,.141-.222.217-.359l.062-.109c.022-.038.069-.123.1-.191l.09-.169c.034-.062.21-.422.257-.526.1-.212.113-.249.137-.307.014-.034.043-.1.064-.157a.84.84,0,0,1,.049-.108.056.056,0,0,0,.011-.031.323.323,0,0,1,.025-.076c.033-.075.067-.167.089-.235.009-.03.036-.107.059-.17.038-.1.067-.194.14-.436.013-.041.028-.093.034-.116l.033-.123c.045-.166.089-.343.106-.429a9.917,9.917,0,0,0,.181-1.1,10.757,10.757,0,0,0-.006-1.906c-.025-.211-.06-.452-.077-.539l-.022-.116c-.025-.132-.041-.207-.1-.463-.019-.082-.04-.165-.046-.184s-.031-.1-.054-.177a5.051,5.051,0,0,0-.188-.555.323.323,0,0,1-.025-.076.055.055,0,0,0-.011-.031.448.448,0,0,1-.036-.081c-.044-.121-.259-.577-.328-.695-.022-.038-.053-.093-.068-.123-.027-.052-.221-.347-.238-.361s-.046-.06-.158-.217A9.29,9.29,0,0,0,44.52,4.648c-.033-.029-.069-.063-.08-.075s-.1-.088-.2-.168c-.22-.179-.21-.171-.267-.212a.443.443,0,0,1-.053-.042,1.256,1.256,0,0,0-.106-.074,1.245,1.245,0,0,1-.118-.084.062.062,0,0,0-.03-.019.059.059,0,0,1-.029-.017,7.254,7.254,0,0,0-.966-.528s-.041-.016-.083-.036-.092-.041-.111-.047L42.349,3.3a6.94,6.94,0,0,0-.848-.256l-.174-.037a6.927,6.927,0,0,0-.788-.113c-.223-.023-1.282-.023-1.516,0l-.321.03c-.081.008-.192.02-.247.028-.234.034-.389.06-.488.081l-.127.027c-.084.018-.122.026-.334.076-.084.02-.169.041-.187.047l-.094.028-.134.041-.154.047c-.106.031-.242.077-.381.129L36.37,3.5c-.041.014-.16.063-.265.108s-.193.083-.2.083c-.021,0-.762.37-.909.454l-.147.084-.152.091c-.047.029-.087.052-.089.052s-.486.31-.649.426l-.186.132c-.046.033-.094.068-.106.078l-.172.135c-.148.115-.2.157-.243.2-.012.011-.051.045-.088.074a9.676,9.676,0,0,0-.8.786l-.092.1-.068-.077A9.647,9.647,0,0,0,31.134,5.2l-.164-.132c-.012-.011-.039-.03-.06-.044s-.047-.032-.058-.041c-.065-.052-.153-.117-.2-.149a.424.424,0,0,1-.064-.047c-.008-.012-.405-.277-.514-.343l-.167-.1c-.048-.03-.126-.076-.174-.1s-.114-.064-.147-.084c-.143-.087-.839-.43-1.013-.5-.056-.023-.13-.054-.163-.069-.063-.029-.209-.087-.267-.106l-.147-.054c-.133-.05-.268-.1-.381-.13-.157-.047-.254-.077-.287-.088s-.391-.1-.5-.123l-.12-.026-.127-.026-.14-.027c-.037-.007-.112-.019-.167-.027l-.194-.028c-.087-.013-.2-.025-.548-.056-.138-.013-1.246-.029-1.269-.019m.955,1.684c.092.008.233.024.314.034l.254.033c.059.008.134.019.167.026l.147.028c.123.022.159.03.514.115.242.058.234.056.628.178.174.054.219.07.441.156.336.131.331.129.48.2l.174.078c.087.038.474.239.566.295a.734.734,0,0,0,.076.042s.07.041.15.091.171.106.2.125a.427.427,0,0,1,.067.044c0,.005.064.047.134.094s.142.1.16.11l.107.08.087.066.06.044A.565.565,0,0,1,30,6.44s.037.032.073.062l.082.068L30.3,6.7a8.874,8.874,0,0,1,.892.917l.05.063-.047.075a.421.421,0,0,0-.047.089.014.014,0,0,1-.013.014.014.014,0,0,0-.013.015.268.268,0,0,1-.038.072c-.021.031-.051.078-.065.1l-.077.136-.077.136c-.015.026-.031.054-.036.061s-.036.063-.067.123-.074.14-.095.177c-.146.266-.416.815-.6,1.233-.057.125-.19.442-.232.552-.026.067-.055.141-.064.163-.039.091-.12.307-.161.429-.086.257-.165.5-.187.579-.013.045-.031.108-.041.139s-.031.105-.046.163l-.046.175a10,10,0,0,0-.208,1.2,7.811,7.811,0,0,0,0,.981l.029.2a2.721,2.721,0,0,0,.06.3,2.9,2.9,0,0,0,2.231,2.157,3.087,3.087,0,0,0,1.857-.024,3.767,3.767,0,0,0,1.156-.573s.04-.033.08-.064a3.039,3.039,0,0,0,.468-.507.1.1,0,0,1,.024-.036,2.918,2.918,0,0,0,.443-1.075l.028-.136a6.447,6.447,0,0,0,.029-1.3c-.037-.279-.056-.406-.1-.627s-.123-.577-.2-.851c-.06-.206-.247-.785-.278-.858-.006-.015-.043-.11-.081-.211-.068-.179-.086-.225-.125-.317l-.082-.194c-.035-.082-.084-.2-.109-.252l-.089-.2c-.051-.114-.46-.945-.5-1.018-.059-.105-.087-.156-.133-.242-.026-.049-.07-.127-.1-.175s-.051-.089-.051-.091-.04-.071-.089-.152-.108-.181-.131-.222-.053-.092-.066-.112a.066.066,0,0,1-.013-.054,1.885,1.885,0,0,1,.132-.168l.1-.109c.11-.124.252-.271.4-.421.133-.13.181-.175.327-.3l.1-.089c.02-.017.052-.044.073-.059s.056-.043.078-.062.077-.062.121-.1.083-.064.087-.069A9.708,9.708,0,0,1,36.2,5.42l.18-.083c.087-.04.264-.113.494-.2.211-.082.261-.1.441-.157l.18-.057.063-.019.087-.024c.123-.035.564-.145.625-.155l.14-.028c.157-.033.241-.047.361-.064l.2-.028a4.706,4.706,0,0,1,1.4-.012,6.354,6.354,0,0,1,.762.135c.081.019.145.035.207.053l.12.034a5.968,5.968,0,0,1,.681.251c.066.029.359.178.407.206a4.475,4.475,0,0,1,.608.411s.037.032.074.062a3.667,3.667,0,0,1,.307.286,5.061,5.061,0,0,1,1.225,2.146c.061.2.111.392.13.49.008.041.023.121.035.177s.027.139.035.184.019.109.026.143.018.116.026.184.021.162.027.211a12.8,12.8,0,0,1,0,2.193c-.043.373-.08.639-.106.777-.006.034-.021.116-.033.184-.025.144-.046.245-.06.293-.006.019-.017.059-.025.089-.043.157-.163.518-.209.627l-.06.143-.063.15c-.032.074-.224.464-.258.524-.017.03-.052.094-.078.143s-.058.1-.071.125a.145.145,0,0,0-.025.051.014.014,0,0,1-.013.015.013.013,0,0,0-.013.012c0,.011-.113.2-.2.327l-.045.07-.219.327c-.035.051-.12.17-.279.388-.016.022-.045.059-.063.082s-.059.075-.089.116-.067.087-.08.1-.049.059-.078.1c-.051.067-.324.4-.34.414s-.1.117-.221.252c-.418.48-1.228,1.31-1.683,1.724-.036.033-.085.079-.108.1s-.083.078-.133.123l-.106.1-.121.109-.174.157-.107.1c-.055.047-.225.2-.233.2l-.087.075c-.044.037-.083.071-.087.075s-.037.032-.074.062l-.081.068-.079.068-.146.123-.181.15c-.055.045-.1.085-.107.089s-.7.564-.808.647l-.114.088s-.055.044-.114.089-.11.085-.114.089a.658.658,0,0,1-.053.04.567.567,0,0,0-.053.04s-.064.051-.134.1l-.14.106-.1.075c-.048.035-.09.067-.094.072s-.049.038-.1.074-.1.071-.1.075-.066.051-.138.1c-.233.168-.338.244-.371.269s-.378.273-.479.344c-.157.109-.26.182-.274.193s-.085.06-.174.12-.163.112-.167.116-.22.152-.481.328c-.407.275-.588.4-.828.551-.38.245-.511.33-.635.408l-.271.173a1.066,1.066,0,0,1-.137.08.013.013,0,0,0-.013.014.013.013,0,0,1-.013.014.625.625,0,0,0-.107.061.957.957,0,0,1-.1.061.408.408,0,0,0-.066.041.277.277,0,0,1-.073.041.014.014,0,0,0-.014.014.014.014,0,0,1-.013.014,1.734,1.734,0,0,0-.182.1l-.168.1-.116-.071-.16-.1c-.091-.052-.542-.332-.857-.531-.484-.306-1.275-.829-1.811-1.2-.447-.307-.944-.654-.988-.691-.022-.018-.311-.224-.386-.275a.726.726,0,0,1-.075-.055c-.007-.009-.128-.1-.182-.137s-.253-.183-.268-.2-.053-.042-.1-.076c-.068-.049-.333-.249-.393-.3l-.207-.159-.234-.181-.053-.042c-.094-.073-.3-.236-.481-.384l-.287-.231c-.033-.026-.063-.051-.067-.055s-.037-.033-.073-.063l-.082-.068c-.017-.016-.039-.033-.132-.109l-.147-.123-.094-.079c-.028-.021-.082-.068-.127-.11-.026-.024-.065-.058-.087-.075s-.061-.051-.087-.075-.083-.074-.127-.111l-.087-.075-.1-.089c-.051-.045-.1-.091-.114-.1s-.062-.057-.113-.1-.126-.113-.167-.151l-.248-.232c-.386-.361-1.144-1.124-1.436-1.445-.213-.235-.209-.231-.314-.352l-.1-.115-.087-.1-.087-.1-.073-.089c-.037-.045-.07-.085-.074-.089s-.031-.037-.06-.075l-.066-.084c-.021-.025-.047-.058-.147-.189L21.277,16c-.009-.011-.056-.076-.1-.143l-.113-.157c-.076-.1-.378-.558-.386-.578a.056.056,0,0,0-.014-.021.474.474,0,0,1-.043-.068c-.019-.034-.068-.117-.109-.186s-.076-.128-.076-.131a.946.946,0,0,0-.052-.095c-.062-.1-.276-.538-.328-.665-.02-.049-.047-.113-.061-.144-.056-.126-.2-.543-.241-.694l-.025-.1c-.015-.059-.086-.417-.106-.538a10.812,10.812,0,0,1-.148-1.861,8.373,8.373,0,0,1,.188-1.913c.051-.237.067-.306.078-.341.006-.019.024-.08.04-.136a3.964,3.964,0,0,1,.162-.48.111.111,0,0,0,.012-.037.632.632,0,0,1,.038-.1c.021-.047.046-.106.057-.132a5.409,5.409,0,0,1,.686-1.142l.061-.071a4.895,4.895,0,0,1,.574-.565l.1-.083c.018-.017.052-.04.266-.186.086-.058.159-.106.164-.106a.175.175,0,0,0,.045-.026,5.9,5.9,0,0,1,1.631-.618l.134-.027a7.81,7.81,0,0,1,.929-.116,3.738,3.738,0,0,1,.581.013m7.105,4.947c.03.059.054.1.1.187.016.026.054.1.085.157s.061.115.067.123.055.1.11.211l.128.252c.034.067.229.484.229.491s.021.053.047.111l.059.134.032.076c.024.056.1.253.158.414.037.1.116.347.171.531.021.071.05.187.095.381.007.03.019.094.027.143l.028.17a5.489,5.489,0,0,1,.012.8,1.492,1.492,0,0,1-.573,1.052.519.519,0,0,0-.08.062.019.019,0,0,1-.016.01.424.424,0,0,0-.081.042,2.184,2.184,0,0,1-.406.151,1.43,1.43,0,0,1-1.387-.611,1.888,1.888,0,0,1-.263-1.041,3.633,3.633,0,0,1,.075-.713,7.169,7.169,0,0,1,.219-.817c.132-.368.2-.55.33-.838l.054-.123c.084-.192.359-.745.474-.954l.091-.17c.032-.06.068-.125.082-.145a.179.179,0,0,0,.025-.044.368.368,0,0,1,.067-.1.2.2,0,0,1,.037.058" transform="translate(-17.564 -2.875)" fill="#22b393" fill-rule="evenodd"/>
  </g>
</svg>
