<svg xmlns="http://www.w3.org/2000/svg" width="43" height="40.745" viewBox="0 0 43 40.745">
  <g id="Grupo_651" data-name="Grupo 651" transform="translate(-139 -2074)">
    <path id="Subtração_3" data-name="Subtração 3" d="M11.9,40.745h0A21.511,21.511,0,1,1,43,21.5a21.446,21.446,0,0,1-7.233,16.084h-13.2l7.124-7.124a24.186,24.186,0,0,0,4.485-5.9,12.569,12.569,0,0,0,1.5-5.746,10.572,10.572,0,0,0-3.536-8.346,12.49,12.49,0,0,0-8.476-3.094,13.332,13.332,0,0,0-7.071,1.976,12.768,12.768,0,0,0-4.94,5.719L17.676,18.6a7.814,7.814,0,0,1,2.509-3.2A6.1,6.1,0,0,1,23.76,14.34a4.68,4.68,0,0,1,3.406,1.3,4.607,4.607,0,0,1,1.327,3.432c0,1.932-1.4,4.381-4.16,7.28L11.9,39.144v1.6Z" transform="translate(139 2074)" fill="#457765"/>
  </g>
</svg>
